%TF.GenerationSoftware,KiCad,Pcbnew,(5.1.9)-1*%
%TF.CreationDate,2021-01-02T02:40:32-05:00*%
%TF.ProjectId,Rin3,52696e33-2e6b-4696-9361-645f70636258,rev?*%
%TF.SameCoordinates,Original*%
%TF.FileFunction,Soldermask,Bot*%
%TF.FilePolarity,Negative*%
%FSLAX46Y46*%
G04 Gerber Fmt 4.6, Leading zero omitted, Abs format (unit mm)*
G04 Created by KiCad (PCBNEW (5.1.9)-1) date 2021-01-02 02:40:32*
%MOMM*%
%LPD*%
G01*
G04 APERTURE LIST*
%ADD10C,0.010000*%
G04 APERTURE END LIST*
D10*
%TO.C,G\u002A\u002A\u002A*%
G36*
X-21326575Y26603983D02*
G01*
X-21240283Y26579119D01*
X-21131869Y26530331D01*
X-20995942Y26456627D01*
X-20981625Y26448422D01*
X-20813017Y26349020D01*
X-20674014Y26260882D01*
X-20555785Y26177523D01*
X-20449502Y26092461D01*
X-20346333Y25999213D01*
X-20275794Y25930170D01*
X-20132824Y25771009D01*
X-20028503Y25617755D01*
X-19960431Y25465966D01*
X-19926208Y25311198D01*
X-19923046Y25277186D01*
X-19918708Y25198458D01*
X-19921936Y25147652D01*
X-19936181Y25110556D01*
X-19964894Y25072959D01*
X-19975576Y25060877D01*
X-20017200Y25019810D01*
X-20058971Y24997393D01*
X-20117365Y24986847D01*
X-20163395Y24983603D01*
X-20328336Y24995557D01*
X-20417635Y25018942D01*
X-20531279Y25066728D01*
X-20664093Y25140513D01*
X-20807082Y25234689D01*
X-20951253Y25343649D01*
X-20991297Y25376621D01*
X-21138058Y25517241D01*
X-21277772Y25683264D01*
X-21398799Y25859759D01*
X-21471544Y25992596D01*
X-21516690Y26092549D01*
X-21544442Y26172782D01*
X-21559447Y26249717D01*
X-21565675Y26325319D01*
X-21568671Y26405674D01*
X-21565252Y26457100D01*
X-21551839Y26492903D01*
X-21524857Y26526394D01*
X-21506643Y26544948D01*
X-21454364Y26585907D01*
X-21396138Y26605915D01*
X-21326575Y26603983D01*
G37*
X-21326575Y26603983D02*
X-21240283Y26579119D01*
X-21131869Y26530331D01*
X-20995942Y26456627D01*
X-20981625Y26448422D01*
X-20813017Y26349020D01*
X-20674014Y26260882D01*
X-20555785Y26177523D01*
X-20449502Y26092461D01*
X-20346333Y25999213D01*
X-20275794Y25930170D01*
X-20132824Y25771009D01*
X-20028503Y25617755D01*
X-19960431Y25465966D01*
X-19926208Y25311198D01*
X-19923046Y25277186D01*
X-19918708Y25198458D01*
X-19921936Y25147652D01*
X-19936181Y25110556D01*
X-19964894Y25072959D01*
X-19975576Y25060877D01*
X-20017200Y25019810D01*
X-20058971Y24997393D01*
X-20117365Y24986847D01*
X-20163395Y24983603D01*
X-20328336Y24995557D01*
X-20417635Y25018942D01*
X-20531279Y25066728D01*
X-20664093Y25140513D01*
X-20807082Y25234689D01*
X-20951253Y25343649D01*
X-20991297Y25376621D01*
X-21138058Y25517241D01*
X-21277772Y25683264D01*
X-21398799Y25859759D01*
X-21471544Y25992596D01*
X-21516690Y26092549D01*
X-21544442Y26172782D01*
X-21559447Y26249717D01*
X-21565675Y26325319D01*
X-21568671Y26405674D01*
X-21565252Y26457100D01*
X-21551839Y26492903D01*
X-21524857Y26526394D01*
X-21506643Y26544948D01*
X-21454364Y26585907D01*
X-21396138Y26605915D01*
X-21326575Y26603983D01*
G36*
X23063493Y3462698D02*
G01*
X23103135Y3427345D01*
X23114000Y3395258D01*
X23108609Y3365225D01*
X23093615Y3301431D01*
X23070788Y3210893D01*
X23041896Y3100628D01*
X23008724Y2977704D01*
X22936423Y2706443D01*
X22860259Y2408023D01*
X22783806Y2096960D01*
X22710637Y1787769D01*
X22650750Y1524000D01*
X22585585Y1183321D01*
X22532262Y802409D01*
X22490823Y381686D01*
X22461309Y-78424D01*
X22444139Y-560916D01*
X22444456Y-1212385D01*
X22475896Y-1840183D01*
X22538306Y-2443114D01*
X22631533Y-3019978D01*
X22755425Y-3569577D01*
X22884263Y-4012959D01*
X22924055Y-4139112D01*
X22950314Y-4231746D01*
X22963809Y-4297188D01*
X22965310Y-4341763D01*
X22955586Y-4371796D01*
X22935408Y-4393613D01*
X22930985Y-4396966D01*
X22901474Y-4415056D01*
X22871441Y-4420653D01*
X22831416Y-4411836D01*
X22771931Y-4386685D01*
X22695232Y-4349147D01*
X22540383Y-4252480D01*
X22404304Y-4125950D01*
X22286051Y-3967803D01*
X22184680Y-3776284D01*
X22099248Y-3549638D01*
X22028811Y-3286111D01*
X21977191Y-3014287D01*
X21963092Y-2896276D01*
X21952198Y-2743457D01*
X21944506Y-2563233D01*
X21940012Y-2363007D01*
X21938713Y-2150184D01*
X21940606Y-1932165D01*
X21945686Y-1716356D01*
X21953951Y-1510158D01*
X21965396Y-1320977D01*
X21978065Y-1174750D01*
X22052723Y-550976D01*
X22151332Y103074D01*
X22273133Y783300D01*
X22417372Y1485605D01*
X22583290Y2205888D01*
X22658114Y2508250D01*
X22715478Y2734257D01*
X22764072Y2922502D01*
X22804958Y3076401D01*
X22839194Y3199369D01*
X22867841Y3294822D01*
X22891959Y3366173D01*
X22912608Y3416839D01*
X22930848Y3450235D01*
X22947739Y3469775D01*
X22958735Y3476773D01*
X23009957Y3482011D01*
X23063493Y3462698D01*
G37*
X23063493Y3462698D02*
X23103135Y3427345D01*
X23114000Y3395258D01*
X23108609Y3365225D01*
X23093615Y3301431D01*
X23070788Y3210893D01*
X23041896Y3100628D01*
X23008724Y2977704D01*
X22936423Y2706443D01*
X22860259Y2408023D01*
X22783806Y2096960D01*
X22710637Y1787769D01*
X22650750Y1524000D01*
X22585585Y1183321D01*
X22532262Y802409D01*
X22490823Y381686D01*
X22461309Y-78424D01*
X22444139Y-560916D01*
X22444456Y-1212385D01*
X22475896Y-1840183D01*
X22538306Y-2443114D01*
X22631533Y-3019978D01*
X22755425Y-3569577D01*
X22884263Y-4012959D01*
X22924055Y-4139112D01*
X22950314Y-4231746D01*
X22963809Y-4297188D01*
X22965310Y-4341763D01*
X22955586Y-4371796D01*
X22935408Y-4393613D01*
X22930985Y-4396966D01*
X22901474Y-4415056D01*
X22871441Y-4420653D01*
X22831416Y-4411836D01*
X22771931Y-4386685D01*
X22695232Y-4349147D01*
X22540383Y-4252480D01*
X22404304Y-4125950D01*
X22286051Y-3967803D01*
X22184680Y-3776284D01*
X22099248Y-3549638D01*
X22028811Y-3286111D01*
X21977191Y-3014287D01*
X21963092Y-2896276D01*
X21952198Y-2743457D01*
X21944506Y-2563233D01*
X21940012Y-2363007D01*
X21938713Y-2150184D01*
X21940606Y-1932165D01*
X21945686Y-1716356D01*
X21953951Y-1510158D01*
X21965396Y-1320977D01*
X21978065Y-1174750D01*
X22052723Y-550976D01*
X22151332Y103074D01*
X22273133Y783300D01*
X22417372Y1485605D01*
X22583290Y2205888D01*
X22658114Y2508250D01*
X22715478Y2734257D01*
X22764072Y2922502D01*
X22804958Y3076401D01*
X22839194Y3199369D01*
X22867841Y3294822D01*
X22891959Y3366173D01*
X22912608Y3416839D01*
X22930848Y3450235D01*
X22947739Y3469775D01*
X22958735Y3476773D01*
X23009957Y3482011D01*
X23063493Y3462698D01*
G36*
X8634182Y7561259D02*
G01*
X8666568Y7500751D01*
X8691254Y7402781D01*
X8696272Y7373783D01*
X8728240Y7203545D01*
X8772654Y7005503D01*
X8826518Y6791270D01*
X8886835Y6572459D01*
X8950610Y6360684D01*
X8984961Y6254750D01*
X9206741Y5656325D01*
X9468535Y5069324D01*
X9769210Y4495218D01*
X10107633Y3935476D01*
X10482672Y3391570D01*
X10893193Y2864969D01*
X11338063Y2357145D01*
X11816151Y1869567D01*
X12326323Y1403705D01*
X12867446Y961031D01*
X13323414Y623480D01*
X13386624Y580590D01*
X13431635Y553672D01*
X13451975Y546411D01*
X13451251Y550707D01*
X13431953Y579110D01*
X13393144Y634124D01*
X13340236Y708140D01*
X13278640Y793552D01*
X13270828Y804334D01*
X13056047Y1110257D01*
X12852995Y1418475D01*
X12664501Y1723983D01*
X12493391Y2021776D01*
X12342494Y2306849D01*
X12214638Y2574198D01*
X12112649Y2818818D01*
X12076767Y2917757D01*
X12035521Y3045089D01*
X12011340Y3139625D01*
X12003444Y3206961D01*
X12011058Y3252692D01*
X12026900Y3276601D01*
X12064609Y3299703D01*
X12110879Y3297496D01*
X12170571Y3267858D01*
X12248547Y3208664D01*
X12313293Y3151549D01*
X12440343Y3041104D01*
X12592631Y2917971D01*
X12758817Y2790775D01*
X12927560Y2668136D01*
X13087520Y2558678D01*
X13125975Y2533633D01*
X13339206Y2402418D01*
X13581710Y2263438D01*
X13842610Y2122350D01*
X14111030Y1984809D01*
X14376092Y1856469D01*
X14626919Y1742987D01*
X14734088Y1697512D01*
X14937259Y1613382D01*
X14791708Y1806816D01*
X14720321Y1907051D01*
X14647876Y2017739D01*
X14585161Y2122024D01*
X14557880Y2172184D01*
X14516602Y2253748D01*
X14492710Y2307337D01*
X14484024Y2342517D01*
X14488364Y2368854D01*
X14503551Y2395913D01*
X14506040Y2399725D01*
X14543454Y2439137D01*
X14581601Y2455334D01*
X14615657Y2446548D01*
X14678296Y2422711D01*
X14760186Y2387599D01*
X14840404Y2350547D01*
X15177723Y2207287D01*
X15516633Y2099893D01*
X15865513Y2026382D01*
X16232745Y1984769D01*
X16425333Y1975321D01*
X16543453Y1972228D01*
X16644809Y1970942D01*
X16737270Y1971979D01*
X16828704Y1975854D01*
X16926981Y1983086D01*
X17039968Y1994189D01*
X17175535Y2009681D01*
X17341549Y2030078D01*
X17430750Y2041305D01*
X17587560Y2061213D01*
X17730826Y2079570D01*
X17855138Y2095671D01*
X17955086Y2108809D01*
X18025260Y2118277D01*
X18060250Y2123368D01*
X18062919Y2123888D01*
X18054094Y2135869D01*
X18015434Y2164023D01*
X17953875Y2203541D01*
X17908818Y2230715D01*
X17608039Y2431518D01*
X17319891Y2670193D01*
X17047383Y2943391D01*
X16793522Y3247759D01*
X16561315Y3579946D01*
X16353770Y3936600D01*
X16320607Y4000500D01*
X16251968Y4138933D01*
X16188820Y4273533D01*
X16133857Y4397916D01*
X16089776Y4505696D01*
X16059270Y4590490D01*
X16045037Y4645911D01*
X16044333Y4654981D01*
X16062358Y4699706D01*
X16105108Y4736382D01*
X16155593Y4753122D01*
X16179826Y4749790D01*
X16205880Y4728075D01*
X16250192Y4679199D01*
X16306480Y4610493D01*
X16366196Y4532352D01*
X16603506Y4245094D01*
X16876069Y3974853D01*
X17179343Y3724208D01*
X17508788Y3495734D01*
X17859862Y3292011D01*
X18228024Y3115614D01*
X18608732Y2969122D01*
X18997445Y2855111D01*
X19389622Y2776160D01*
X19484459Y2762623D01*
X19605575Y2748118D01*
X19717364Y2738288D01*
X19829535Y2732921D01*
X19951795Y2731804D01*
X20093854Y2734726D01*
X20265419Y2741475D01*
X20325286Y2744272D01*
X20612431Y2758043D01*
X20390182Y2913635D01*
X19994487Y3215579D01*
X19631316Y3544613D01*
X19300640Y3900766D01*
X19109742Y4138084D01*
X19019173Y4264089D01*
X18927811Y4403704D01*
X18838337Y4551577D01*
X18753431Y4702357D01*
X18675775Y4850693D01*
X18608050Y4991233D01*
X18552937Y5118626D01*
X18513117Y5227521D01*
X18491272Y5312567D01*
X18490081Y5368412D01*
X18491297Y5372459D01*
X18514179Y5412943D01*
X18554019Y5428011D01*
X18582276Y5429250D01*
X18613623Y5427528D01*
X18638684Y5418073D01*
X18662856Y5394455D01*
X18691536Y5350241D01*
X18730122Y5278999D01*
X18764844Y5211695D01*
X18930606Y4931405D01*
X19136933Y4656826D01*
X19382282Y4389312D01*
X19665112Y4130214D01*
X19983878Y3880886D01*
X20337038Y3642682D01*
X20723049Y3416954D01*
X20942738Y3301672D01*
X21070372Y3237718D01*
X21192494Y3177509D01*
X21301466Y3124734D01*
X21389650Y3083086D01*
X21449409Y3056255D01*
X21457708Y3052817D01*
X21520715Y3025822D01*
X21553836Y3002670D01*
X21566673Y2971956D01*
X21568833Y2922273D01*
X21568833Y2920841D01*
X21564960Y2859219D01*
X21553485Y2757454D01*
X21534624Y2617008D01*
X21508592Y2439344D01*
X21475606Y2225924D01*
X21435883Y1978211D01*
X21389637Y1697666D01*
X21377064Y1622469D01*
X21310020Y1205590D01*
X21254304Y819705D01*
X21209006Y455285D01*
X21173215Y102798D01*
X21146020Y-247286D01*
X21126509Y-604497D01*
X21113772Y-978366D01*
X21109655Y-1174750D01*
X21108167Y-1713793D01*
X21122945Y-2215647D01*
X21154209Y-2682300D01*
X21202181Y-3115736D01*
X21267082Y-3517944D01*
X21349134Y-3890910D01*
X21448560Y-4236620D01*
X21452399Y-4248380D01*
X21555386Y-4529881D01*
X21670398Y-4776854D01*
X21802774Y-4996571D01*
X21957855Y-5196307D01*
X22140980Y-5383333D01*
X22357488Y-5564925D01*
X22492265Y-5664785D01*
X22560048Y-5715336D01*
X22605101Y-5758356D01*
X22626124Y-5799412D01*
X22621818Y-5844065D01*
X22590882Y-5897880D01*
X22532018Y-5966422D01*
X22443925Y-6055253D01*
X22388500Y-6109029D01*
X21913810Y-6556982D01*
X21428012Y-6995594D01*
X20934117Y-7422665D01*
X20435137Y-7835998D01*
X19934085Y-8233395D01*
X19433970Y-8612658D01*
X18937807Y-8971589D01*
X18448605Y-9307989D01*
X17969378Y-9619660D01*
X17503136Y-9904405D01*
X17052893Y-10160025D01*
X16621658Y-10384323D01*
X16358916Y-10509558D01*
X16271133Y-10548670D01*
X16198272Y-10576363D01*
X16131527Y-10593182D01*
X16062092Y-10599674D01*
X15981162Y-10596382D01*
X15879931Y-10583854D01*
X15749595Y-10562634D01*
X15684500Y-10551339D01*
X15353384Y-10489216D01*
X14991502Y-10413619D01*
X14604690Y-10326178D01*
X14198784Y-10228522D01*
X13779620Y-10122282D01*
X13353035Y-10009088D01*
X12924865Y-9890569D01*
X12500946Y-9768354D01*
X12087114Y-9644075D01*
X11689206Y-9519360D01*
X11313057Y-9395840D01*
X10964505Y-9275145D01*
X10649385Y-9158904D01*
X10525254Y-9110552D01*
X10139283Y-8949130D01*
X9793073Y-8786278D01*
X9484055Y-8619990D01*
X9209660Y-8448260D01*
X8967321Y-8269083D01*
X8754467Y-8080452D01*
X8568532Y-7880361D01*
X8406945Y-7666805D01*
X8267139Y-7437777D01*
X8190223Y-7287029D01*
X8143805Y-7184546D01*
X8099708Y-7075848D01*
X8056367Y-6955869D01*
X8012214Y-6819539D01*
X7965685Y-6661791D01*
X7915211Y-6477556D01*
X7859229Y-6261766D01*
X7799267Y-6021916D01*
X7724283Y-5724653D01*
X7653780Y-5461456D01*
X7584970Y-5224684D01*
X7515063Y-5006698D01*
X7441271Y-4799859D01*
X7360805Y-4596528D01*
X7270876Y-4389064D01*
X7168697Y-4169830D01*
X7051478Y-3931184D01*
X6995697Y-3820583D01*
X6692232Y-3249116D01*
X6358443Y-2669135D01*
X6000284Y-2089781D01*
X5623711Y-1520196D01*
X5234678Y-969520D01*
X4839139Y-446894D01*
X4619899Y-173403D01*
X4523488Y-53323D01*
X4450201Y44429D01*
X4394301Y128497D01*
X4350051Y207523D01*
X4311715Y290150D01*
X4310814Y292264D01*
X4268863Y394256D01*
X4244542Y465709D01*
X4237169Y514249D01*
X4246064Y547507D01*
X4270544Y573108D01*
X4284830Y583100D01*
X4321710Y601027D01*
X4357235Y600707D01*
X4396833Y578371D01*
X4445932Y530247D01*
X4509961Y452566D01*
X4552525Y397174D01*
X4799515Y88964D01*
X5047340Y-185550D01*
X5294162Y-424677D01*
X5538147Y-626725D01*
X5777458Y-790004D01*
X5937250Y-878358D01*
X6067611Y-936729D01*
X6204165Y-986544D01*
X6336468Y-1024833D01*
X6454076Y-1048621D01*
X6546543Y-1054936D01*
X6555643Y-1054363D01*
X6635750Y-1047750D01*
X6706524Y-222250D01*
X6648829Y-158750D01*
X6478527Y47696D01*
X6307951Y291080D01*
X6140009Y566128D01*
X5977614Y867565D01*
X5823675Y1190116D01*
X5681104Y1528506D01*
X5601161Y1739896D01*
X5467877Y2140764D01*
X5345494Y2574411D01*
X5235803Y3032275D01*
X5140591Y3505794D01*
X5061648Y3986406D01*
X5000764Y4465549D01*
X4974501Y4738567D01*
X4965850Y4862433D01*
X4965162Y4950298D01*
X4973959Y5008001D01*
X4993767Y5041380D01*
X5026109Y5056276D01*
X5058066Y5058834D01*
X5125782Y5044512D01*
X5167435Y4999754D01*
X5185104Y4921874D01*
X5186037Y4893280D01*
X5189448Y4811131D01*
X5198671Y4696861D01*
X5212579Y4560108D01*
X5230046Y4410513D01*
X5249946Y4257715D01*
X5271152Y4111354D01*
X5292537Y3981068D01*
X5292845Y3979334D01*
X5394916Y3503594D01*
X5528045Y3047539D01*
X5691049Y2613542D01*
X5882743Y2203976D01*
X6101941Y1821215D01*
X6347461Y1467632D01*
X6618117Y1145601D01*
X6798434Y962440D01*
X6887471Y879900D01*
X6981424Y796966D01*
X7074684Y718119D01*
X7161647Y647838D01*
X7236704Y590601D01*
X7294250Y550888D01*
X7328678Y533178D01*
X7335178Y533623D01*
X7335748Y558667D01*
X7322119Y604125D01*
X7321530Y605607D01*
X7306723Y664858D01*
X7297637Y746098D01*
X7294288Y836853D01*
X7296691Y924649D01*
X7304864Y997012D01*
X7318821Y1041469D01*
X7320967Y1044435D01*
X7346667Y1066798D01*
X7380130Y1075542D01*
X7427166Y1069175D01*
X7493582Y1046202D01*
X7585189Y1005130D01*
X7705691Y945532D01*
X7895442Y855219D01*
X8062816Y789331D01*
X8217856Y745069D01*
X8370606Y719639D01*
X8531109Y710242D01*
X8551333Y710060D01*
X8665785Y712501D01*
X8764509Y720189D01*
X8836059Y732112D01*
X8851181Y736597D01*
X8928780Y764111D01*
X8806758Y927097D01*
X8629519Y1188866D01*
X8459273Y1490718D01*
X8296635Y1830884D01*
X8142221Y2207598D01*
X7996645Y2619092D01*
X7860523Y3063599D01*
X7734468Y3539351D01*
X7619096Y4044581D01*
X7515022Y4577520D01*
X7492673Y4704261D01*
X7464309Y4873043D01*
X7444732Y5004832D01*
X7434309Y5104124D01*
X7433406Y5175414D01*
X7442389Y5223197D01*
X7461624Y5251968D01*
X7491479Y5266221D01*
X7532319Y5270452D01*
X7538822Y5270500D01*
X7579444Y5264337D01*
X7608958Y5241099D01*
X7631489Y5193668D01*
X7651163Y5114923D01*
X7661804Y5058279D01*
X7685522Y4937779D01*
X7718825Y4787457D01*
X7759036Y4618006D01*
X7803473Y4440121D01*
X7849457Y4264497D01*
X7894309Y4101827D01*
X7935350Y3962808D01*
X7940091Y3947584D01*
X8119775Y3433237D01*
X8330860Y2933319D01*
X8571117Y2451437D01*
X8838317Y1991201D01*
X9130231Y1556220D01*
X9444631Y1150101D01*
X9779287Y776454D01*
X10076804Y488168D01*
X10175968Y399788D01*
X10272264Y316386D01*
X10361206Y241572D01*
X10438311Y178956D01*
X10499093Y132148D01*
X10539067Y104758D01*
X10553750Y100396D01*
X10551369Y106180D01*
X10531276Y137484D01*
X10494664Y193511D01*
X10448433Y263719D01*
X10434069Y285443D01*
X10230954Y611449D01*
X10029361Y972020D01*
X9833002Y1359445D01*
X9645590Y1766013D01*
X9470838Y2184010D01*
X9312460Y2605727D01*
X9300586Y2639460D01*
X9124008Y3186470D01*
X8965450Y3765560D01*
X8826157Y4369942D01*
X8707373Y4992826D01*
X8610341Y5627426D01*
X8536305Y6266953D01*
X8486510Y6904620D01*
X8474001Y7149672D01*
X8468695Y7294502D01*
X8467579Y7402693D01*
X8471427Y7479800D01*
X8481014Y7531381D01*
X8497117Y7562990D01*
X8520511Y7580184D01*
X8534752Y7584999D01*
X8591206Y7588082D01*
X8634182Y7561259D01*
G37*
X8634182Y7561259D02*
X8666568Y7500751D01*
X8691254Y7402781D01*
X8696272Y7373783D01*
X8728240Y7203545D01*
X8772654Y7005503D01*
X8826518Y6791270D01*
X8886835Y6572459D01*
X8950610Y6360684D01*
X8984961Y6254750D01*
X9206741Y5656325D01*
X9468535Y5069324D01*
X9769210Y4495218D01*
X10107633Y3935476D01*
X10482672Y3391570D01*
X10893193Y2864969D01*
X11338063Y2357145D01*
X11816151Y1869567D01*
X12326323Y1403705D01*
X12867446Y961031D01*
X13323414Y623480D01*
X13386624Y580590D01*
X13431635Y553672D01*
X13451975Y546411D01*
X13451251Y550707D01*
X13431953Y579110D01*
X13393144Y634124D01*
X13340236Y708140D01*
X13278640Y793552D01*
X13270828Y804334D01*
X13056047Y1110257D01*
X12852995Y1418475D01*
X12664501Y1723983D01*
X12493391Y2021776D01*
X12342494Y2306849D01*
X12214638Y2574198D01*
X12112649Y2818818D01*
X12076767Y2917757D01*
X12035521Y3045089D01*
X12011340Y3139625D01*
X12003444Y3206961D01*
X12011058Y3252692D01*
X12026900Y3276601D01*
X12064609Y3299703D01*
X12110879Y3297496D01*
X12170571Y3267858D01*
X12248547Y3208664D01*
X12313293Y3151549D01*
X12440343Y3041104D01*
X12592631Y2917971D01*
X12758817Y2790775D01*
X12927560Y2668136D01*
X13087520Y2558678D01*
X13125975Y2533633D01*
X13339206Y2402418D01*
X13581710Y2263438D01*
X13842610Y2122350D01*
X14111030Y1984809D01*
X14376092Y1856469D01*
X14626919Y1742987D01*
X14734088Y1697512D01*
X14937259Y1613382D01*
X14791708Y1806816D01*
X14720321Y1907051D01*
X14647876Y2017739D01*
X14585161Y2122024D01*
X14557880Y2172184D01*
X14516602Y2253748D01*
X14492710Y2307337D01*
X14484024Y2342517D01*
X14488364Y2368854D01*
X14503551Y2395913D01*
X14506040Y2399725D01*
X14543454Y2439137D01*
X14581601Y2455334D01*
X14615657Y2446548D01*
X14678296Y2422711D01*
X14760186Y2387599D01*
X14840404Y2350547D01*
X15177723Y2207287D01*
X15516633Y2099893D01*
X15865513Y2026382D01*
X16232745Y1984769D01*
X16425333Y1975321D01*
X16543453Y1972228D01*
X16644809Y1970942D01*
X16737270Y1971979D01*
X16828704Y1975854D01*
X16926981Y1983086D01*
X17039968Y1994189D01*
X17175535Y2009681D01*
X17341549Y2030078D01*
X17430750Y2041305D01*
X17587560Y2061213D01*
X17730826Y2079570D01*
X17855138Y2095671D01*
X17955086Y2108809D01*
X18025260Y2118277D01*
X18060250Y2123368D01*
X18062919Y2123888D01*
X18054094Y2135869D01*
X18015434Y2164023D01*
X17953875Y2203541D01*
X17908818Y2230715D01*
X17608039Y2431518D01*
X17319891Y2670193D01*
X17047383Y2943391D01*
X16793522Y3247759D01*
X16561315Y3579946D01*
X16353770Y3936600D01*
X16320607Y4000500D01*
X16251968Y4138933D01*
X16188820Y4273533D01*
X16133857Y4397916D01*
X16089776Y4505696D01*
X16059270Y4590490D01*
X16045037Y4645911D01*
X16044333Y4654981D01*
X16062358Y4699706D01*
X16105108Y4736382D01*
X16155593Y4753122D01*
X16179826Y4749790D01*
X16205880Y4728075D01*
X16250192Y4679199D01*
X16306480Y4610493D01*
X16366196Y4532352D01*
X16603506Y4245094D01*
X16876069Y3974853D01*
X17179343Y3724208D01*
X17508788Y3495734D01*
X17859862Y3292011D01*
X18228024Y3115614D01*
X18608732Y2969122D01*
X18997445Y2855111D01*
X19389622Y2776160D01*
X19484459Y2762623D01*
X19605575Y2748118D01*
X19717364Y2738288D01*
X19829535Y2732921D01*
X19951795Y2731804D01*
X20093854Y2734726D01*
X20265419Y2741475D01*
X20325286Y2744272D01*
X20612431Y2758043D01*
X20390182Y2913635D01*
X19994487Y3215579D01*
X19631316Y3544613D01*
X19300640Y3900766D01*
X19109742Y4138084D01*
X19019173Y4264089D01*
X18927811Y4403704D01*
X18838337Y4551577D01*
X18753431Y4702357D01*
X18675775Y4850693D01*
X18608050Y4991233D01*
X18552937Y5118626D01*
X18513117Y5227521D01*
X18491272Y5312567D01*
X18490081Y5368412D01*
X18491297Y5372459D01*
X18514179Y5412943D01*
X18554019Y5428011D01*
X18582276Y5429250D01*
X18613623Y5427528D01*
X18638684Y5418073D01*
X18662856Y5394455D01*
X18691536Y5350241D01*
X18730122Y5278999D01*
X18764844Y5211695D01*
X18930606Y4931405D01*
X19136933Y4656826D01*
X19382282Y4389312D01*
X19665112Y4130214D01*
X19983878Y3880886D01*
X20337038Y3642682D01*
X20723049Y3416954D01*
X20942738Y3301672D01*
X21070372Y3237718D01*
X21192494Y3177509D01*
X21301466Y3124734D01*
X21389650Y3083086D01*
X21449409Y3056255D01*
X21457708Y3052817D01*
X21520715Y3025822D01*
X21553836Y3002670D01*
X21566673Y2971956D01*
X21568833Y2922273D01*
X21568833Y2920841D01*
X21564960Y2859219D01*
X21553485Y2757454D01*
X21534624Y2617008D01*
X21508592Y2439344D01*
X21475606Y2225924D01*
X21435883Y1978211D01*
X21389637Y1697666D01*
X21377064Y1622469D01*
X21310020Y1205590D01*
X21254304Y819705D01*
X21209006Y455285D01*
X21173215Y102798D01*
X21146020Y-247286D01*
X21126509Y-604497D01*
X21113772Y-978366D01*
X21109655Y-1174750D01*
X21108167Y-1713793D01*
X21122945Y-2215647D01*
X21154209Y-2682300D01*
X21202181Y-3115736D01*
X21267082Y-3517944D01*
X21349134Y-3890910D01*
X21448560Y-4236620D01*
X21452399Y-4248380D01*
X21555386Y-4529881D01*
X21670398Y-4776854D01*
X21802774Y-4996571D01*
X21957855Y-5196307D01*
X22140980Y-5383333D01*
X22357488Y-5564925D01*
X22492265Y-5664785D01*
X22560048Y-5715336D01*
X22605101Y-5758356D01*
X22626124Y-5799412D01*
X22621818Y-5844065D01*
X22590882Y-5897880D01*
X22532018Y-5966422D01*
X22443925Y-6055253D01*
X22388500Y-6109029D01*
X21913810Y-6556982D01*
X21428012Y-6995594D01*
X20934117Y-7422665D01*
X20435137Y-7835998D01*
X19934085Y-8233395D01*
X19433970Y-8612658D01*
X18937807Y-8971589D01*
X18448605Y-9307989D01*
X17969378Y-9619660D01*
X17503136Y-9904405D01*
X17052893Y-10160025D01*
X16621658Y-10384323D01*
X16358916Y-10509558D01*
X16271133Y-10548670D01*
X16198272Y-10576363D01*
X16131527Y-10593182D01*
X16062092Y-10599674D01*
X15981162Y-10596382D01*
X15879931Y-10583854D01*
X15749595Y-10562634D01*
X15684500Y-10551339D01*
X15353384Y-10489216D01*
X14991502Y-10413619D01*
X14604690Y-10326178D01*
X14198784Y-10228522D01*
X13779620Y-10122282D01*
X13353035Y-10009088D01*
X12924865Y-9890569D01*
X12500946Y-9768354D01*
X12087114Y-9644075D01*
X11689206Y-9519360D01*
X11313057Y-9395840D01*
X10964505Y-9275145D01*
X10649385Y-9158904D01*
X10525254Y-9110552D01*
X10139283Y-8949130D01*
X9793073Y-8786278D01*
X9484055Y-8619990D01*
X9209660Y-8448260D01*
X8967321Y-8269083D01*
X8754467Y-8080452D01*
X8568532Y-7880361D01*
X8406945Y-7666805D01*
X8267139Y-7437777D01*
X8190223Y-7287029D01*
X8143805Y-7184546D01*
X8099708Y-7075848D01*
X8056367Y-6955869D01*
X8012214Y-6819539D01*
X7965685Y-6661791D01*
X7915211Y-6477556D01*
X7859229Y-6261766D01*
X7799267Y-6021916D01*
X7724283Y-5724653D01*
X7653780Y-5461456D01*
X7584970Y-5224684D01*
X7515063Y-5006698D01*
X7441271Y-4799859D01*
X7360805Y-4596528D01*
X7270876Y-4389064D01*
X7168697Y-4169830D01*
X7051478Y-3931184D01*
X6995697Y-3820583D01*
X6692232Y-3249116D01*
X6358443Y-2669135D01*
X6000284Y-2089781D01*
X5623711Y-1520196D01*
X5234678Y-969520D01*
X4839139Y-446894D01*
X4619899Y-173403D01*
X4523488Y-53323D01*
X4450201Y44429D01*
X4394301Y128497D01*
X4350051Y207523D01*
X4311715Y290150D01*
X4310814Y292264D01*
X4268863Y394256D01*
X4244542Y465709D01*
X4237169Y514249D01*
X4246064Y547507D01*
X4270544Y573108D01*
X4284830Y583100D01*
X4321710Y601027D01*
X4357235Y600707D01*
X4396833Y578371D01*
X4445932Y530247D01*
X4509961Y452566D01*
X4552525Y397174D01*
X4799515Y88964D01*
X5047340Y-185550D01*
X5294162Y-424677D01*
X5538147Y-626725D01*
X5777458Y-790004D01*
X5937250Y-878358D01*
X6067611Y-936729D01*
X6204165Y-986544D01*
X6336468Y-1024833D01*
X6454076Y-1048621D01*
X6546543Y-1054936D01*
X6555643Y-1054363D01*
X6635750Y-1047750D01*
X6706524Y-222250D01*
X6648829Y-158750D01*
X6478527Y47696D01*
X6307951Y291080D01*
X6140009Y566128D01*
X5977614Y867565D01*
X5823675Y1190116D01*
X5681104Y1528506D01*
X5601161Y1739896D01*
X5467877Y2140764D01*
X5345494Y2574411D01*
X5235803Y3032275D01*
X5140591Y3505794D01*
X5061648Y3986406D01*
X5000764Y4465549D01*
X4974501Y4738567D01*
X4965850Y4862433D01*
X4965162Y4950298D01*
X4973959Y5008001D01*
X4993767Y5041380D01*
X5026109Y5056276D01*
X5058066Y5058834D01*
X5125782Y5044512D01*
X5167435Y4999754D01*
X5185104Y4921874D01*
X5186037Y4893280D01*
X5189448Y4811131D01*
X5198671Y4696861D01*
X5212579Y4560108D01*
X5230046Y4410513D01*
X5249946Y4257715D01*
X5271152Y4111354D01*
X5292537Y3981068D01*
X5292845Y3979334D01*
X5394916Y3503594D01*
X5528045Y3047539D01*
X5691049Y2613542D01*
X5882743Y2203976D01*
X6101941Y1821215D01*
X6347461Y1467632D01*
X6618117Y1145601D01*
X6798434Y962440D01*
X6887471Y879900D01*
X6981424Y796966D01*
X7074684Y718119D01*
X7161647Y647838D01*
X7236704Y590601D01*
X7294250Y550888D01*
X7328678Y533178D01*
X7335178Y533623D01*
X7335748Y558667D01*
X7322119Y604125D01*
X7321530Y605607D01*
X7306723Y664858D01*
X7297637Y746098D01*
X7294288Y836853D01*
X7296691Y924649D01*
X7304864Y997012D01*
X7318821Y1041469D01*
X7320967Y1044435D01*
X7346667Y1066798D01*
X7380130Y1075542D01*
X7427166Y1069175D01*
X7493582Y1046202D01*
X7585189Y1005130D01*
X7705691Y945532D01*
X7895442Y855219D01*
X8062816Y789331D01*
X8217856Y745069D01*
X8370606Y719639D01*
X8531109Y710242D01*
X8551333Y710060D01*
X8665785Y712501D01*
X8764509Y720189D01*
X8836059Y732112D01*
X8851181Y736597D01*
X8928780Y764111D01*
X8806758Y927097D01*
X8629519Y1188866D01*
X8459273Y1490718D01*
X8296635Y1830884D01*
X8142221Y2207598D01*
X7996645Y2619092D01*
X7860523Y3063599D01*
X7734468Y3539351D01*
X7619096Y4044581D01*
X7515022Y4577520D01*
X7492673Y4704261D01*
X7464309Y4873043D01*
X7444732Y5004832D01*
X7434309Y5104124D01*
X7433406Y5175414D01*
X7442389Y5223197D01*
X7461624Y5251968D01*
X7491479Y5266221D01*
X7532319Y5270452D01*
X7538822Y5270500D01*
X7579444Y5264337D01*
X7608958Y5241099D01*
X7631489Y5193668D01*
X7651163Y5114923D01*
X7661804Y5058279D01*
X7685522Y4937779D01*
X7718825Y4787457D01*
X7759036Y4618006D01*
X7803473Y4440121D01*
X7849457Y4264497D01*
X7894309Y4101827D01*
X7935350Y3962808D01*
X7940091Y3947584D01*
X8119775Y3433237D01*
X8330860Y2933319D01*
X8571117Y2451437D01*
X8838317Y1991201D01*
X9130231Y1556220D01*
X9444631Y1150101D01*
X9779287Y776454D01*
X10076804Y488168D01*
X10175968Y399788D01*
X10272264Y316386D01*
X10361206Y241572D01*
X10438311Y178956D01*
X10499093Y132148D01*
X10539067Y104758D01*
X10553750Y100396D01*
X10551369Y106180D01*
X10531276Y137484D01*
X10494664Y193511D01*
X10448433Y263719D01*
X10434069Y285443D01*
X10230954Y611449D01*
X10029361Y972020D01*
X9833002Y1359445D01*
X9645590Y1766013D01*
X9470838Y2184010D01*
X9312460Y2605727D01*
X9300586Y2639460D01*
X9124008Y3186470D01*
X8965450Y3765560D01*
X8826157Y4369942D01*
X8707373Y4992826D01*
X8610341Y5627426D01*
X8536305Y6266953D01*
X8486510Y6904620D01*
X8474001Y7149672D01*
X8468695Y7294502D01*
X8467579Y7402693D01*
X8471427Y7479800D01*
X8481014Y7531381D01*
X8497117Y7562990D01*
X8520511Y7580184D01*
X8534752Y7584999D01*
X8591206Y7588082D01*
X8634182Y7561259D01*
G36*
X-26494883Y-20143124D02*
G01*
X-26396140Y-20190700D01*
X-26307605Y-20277082D01*
X-26300891Y-20285893D01*
X-26275014Y-20332096D01*
X-26261651Y-20391121D01*
X-26257794Y-20476913D01*
X-26257807Y-20485669D01*
X-26261691Y-20572408D01*
X-26276164Y-20642005D01*
X-26306664Y-20715078D01*
X-26330348Y-20760709D01*
X-26413263Y-20885107D01*
X-26516094Y-20993539D01*
X-26627494Y-21074583D01*
X-26657845Y-21090418D01*
X-26738583Y-21114179D01*
X-26834539Y-21122267D01*
X-26924087Y-21113734D01*
X-26958118Y-21103588D01*
X-27001878Y-21074723D01*
X-27047561Y-21029105D01*
X-27050431Y-21025555D01*
X-27084372Y-20950984D01*
X-27092191Y-20853241D01*
X-27076908Y-20739860D01*
X-27041545Y-20618371D01*
X-26989124Y-20496307D01*
X-26922665Y-20381200D01*
X-26845191Y-20280583D01*
X-26759722Y-20201987D01*
X-26706846Y-20169033D01*
X-26599797Y-20135514D01*
X-26494883Y-20143124D01*
G37*
X-26494883Y-20143124D02*
X-26396140Y-20190700D01*
X-26307605Y-20277082D01*
X-26300891Y-20285893D01*
X-26275014Y-20332096D01*
X-26261651Y-20391121D01*
X-26257794Y-20476913D01*
X-26257807Y-20485669D01*
X-26261691Y-20572408D01*
X-26276164Y-20642005D01*
X-26306664Y-20715078D01*
X-26330348Y-20760709D01*
X-26413263Y-20885107D01*
X-26516094Y-20993539D01*
X-26627494Y-21074583D01*
X-26657845Y-21090418D01*
X-26738583Y-21114179D01*
X-26834539Y-21122267D01*
X-26924087Y-21113734D01*
X-26958118Y-21103588D01*
X-27001878Y-21074723D01*
X-27047561Y-21029105D01*
X-27050431Y-21025555D01*
X-27084372Y-20950984D01*
X-27092191Y-20853241D01*
X-27076908Y-20739860D01*
X-27041545Y-20618371D01*
X-26989124Y-20496307D01*
X-26922665Y-20381200D01*
X-26845191Y-20280583D01*
X-26759722Y-20201987D01*
X-26706846Y-20169033D01*
X-26599797Y-20135514D01*
X-26494883Y-20143124D01*
G36*
X-17087810Y-30027680D02*
G01*
X-17103925Y-30087356D01*
X-17133083Y-30176545D01*
X-17173457Y-30290556D01*
X-17223219Y-30424693D01*
X-17280541Y-30574265D01*
X-17343598Y-30734576D01*
X-17410560Y-30900935D01*
X-17479601Y-31068647D01*
X-17548893Y-31233019D01*
X-17616609Y-31389358D01*
X-17680922Y-31532970D01*
X-17691703Y-31556469D01*
X-17851216Y-31888778D01*
X-18008879Y-32186472D01*
X-18169774Y-32456701D01*
X-18338983Y-32706611D01*
X-18521587Y-32943351D01*
X-18722669Y-33174069D01*
X-18947310Y-33405912D01*
X-19132757Y-33583389D01*
X-19323326Y-33764725D01*
X-19485086Y-33927536D01*
X-19623642Y-34077951D01*
X-19744598Y-34222100D01*
X-19853560Y-34366110D01*
X-19870957Y-34390541D01*
X-19927500Y-34468518D01*
X-19976179Y-34531760D01*
X-20011432Y-34573288D01*
X-20027021Y-34586333D01*
X-20032306Y-34566197D01*
X-20036968Y-34509906D01*
X-20040760Y-34423640D01*
X-20043434Y-34313575D01*
X-20044743Y-34185890D01*
X-20044833Y-34140999D01*
X-20037288Y-33771836D01*
X-20014158Y-33439310D01*
X-19974702Y-33140410D01*
X-19918180Y-32872129D01*
X-19843852Y-32631456D01*
X-19750977Y-32415383D01*
X-19638814Y-32220900D01*
X-19538474Y-32083514D01*
X-19426827Y-31954540D01*
X-19285063Y-31806697D01*
X-19118233Y-31644679D01*
X-18931389Y-31473182D01*
X-18729583Y-31296901D01*
X-18517864Y-31120532D01*
X-18404907Y-31029850D01*
X-18253424Y-30909766D01*
X-18081936Y-30773712D01*
X-17902850Y-30631538D01*
X-17728570Y-30493092D01*
X-17571502Y-30368225D01*
X-17531153Y-30336126D01*
X-17414775Y-30244253D01*
X-17309368Y-30162427D01*
X-17219382Y-30093991D01*
X-17149266Y-30042285D01*
X-17103470Y-30010652D01*
X-17086565Y-30002213D01*
X-17087810Y-30027680D01*
G37*
X-17087810Y-30027680D02*
X-17103925Y-30087356D01*
X-17133083Y-30176545D01*
X-17173457Y-30290556D01*
X-17223219Y-30424693D01*
X-17280541Y-30574265D01*
X-17343598Y-30734576D01*
X-17410560Y-30900935D01*
X-17479601Y-31068647D01*
X-17548893Y-31233019D01*
X-17616609Y-31389358D01*
X-17680922Y-31532970D01*
X-17691703Y-31556469D01*
X-17851216Y-31888778D01*
X-18008879Y-32186472D01*
X-18169774Y-32456701D01*
X-18338983Y-32706611D01*
X-18521587Y-32943351D01*
X-18722669Y-33174069D01*
X-18947310Y-33405912D01*
X-19132757Y-33583389D01*
X-19323326Y-33764725D01*
X-19485086Y-33927536D01*
X-19623642Y-34077951D01*
X-19744598Y-34222100D01*
X-19853560Y-34366110D01*
X-19870957Y-34390541D01*
X-19927500Y-34468518D01*
X-19976179Y-34531760D01*
X-20011432Y-34573288D01*
X-20027021Y-34586333D01*
X-20032306Y-34566197D01*
X-20036968Y-34509906D01*
X-20040760Y-34423640D01*
X-20043434Y-34313575D01*
X-20044743Y-34185890D01*
X-20044833Y-34140999D01*
X-20037288Y-33771836D01*
X-20014158Y-33439310D01*
X-19974702Y-33140410D01*
X-19918180Y-32872129D01*
X-19843852Y-32631456D01*
X-19750977Y-32415383D01*
X-19638814Y-32220900D01*
X-19538474Y-32083514D01*
X-19426827Y-31954540D01*
X-19285063Y-31806697D01*
X-19118233Y-31644679D01*
X-18931389Y-31473182D01*
X-18729583Y-31296901D01*
X-18517864Y-31120532D01*
X-18404907Y-31029850D01*
X-18253424Y-30909766D01*
X-18081936Y-30773712D01*
X-17902850Y-30631538D01*
X-17728570Y-30493092D01*
X-17571502Y-30368225D01*
X-17531153Y-30336126D01*
X-17414775Y-30244253D01*
X-17309368Y-30162427D01*
X-17219382Y-30093991D01*
X-17149266Y-30042285D01*
X-17103470Y-30010652D01*
X-17086565Y-30002213D01*
X-17087810Y-30027680D01*
G36*
X-10640651Y-42958931D02*
G01*
X-10539752Y-42996177D01*
X-10459604Y-43061835D01*
X-10451847Y-43070781D01*
X-10398649Y-43150251D01*
X-10380170Y-43227569D01*
X-10395461Y-43313787D01*
X-10424935Y-43383695D01*
X-10498333Y-43492375D01*
X-10608931Y-43599024D01*
X-10751621Y-43700125D01*
X-10921295Y-43792163D01*
X-11112846Y-43871624D01*
X-11155353Y-43886378D01*
X-11262672Y-43916748D01*
X-11375656Y-43939324D01*
X-11482740Y-43952648D01*
X-11572357Y-43955261D01*
X-11631083Y-43946386D01*
X-11718688Y-43897936D01*
X-11771776Y-43829182D01*
X-11790861Y-43743594D01*
X-11776455Y-43644639D01*
X-11729072Y-43535787D01*
X-11649224Y-43420504D01*
X-11537425Y-43302260D01*
X-11535586Y-43300555D01*
X-11379005Y-43174094D01*
X-11211458Y-43072012D01*
X-11040976Y-42998017D01*
X-10875590Y-42955813D01*
X-10769840Y-42947166D01*
X-10640651Y-42958931D01*
G37*
X-10640651Y-42958931D02*
X-10539752Y-42996177D01*
X-10459604Y-43061835D01*
X-10451847Y-43070781D01*
X-10398649Y-43150251D01*
X-10380170Y-43227569D01*
X-10395461Y-43313787D01*
X-10424935Y-43383695D01*
X-10498333Y-43492375D01*
X-10608931Y-43599024D01*
X-10751621Y-43700125D01*
X-10921295Y-43792163D01*
X-11112846Y-43871624D01*
X-11155353Y-43886378D01*
X-11262672Y-43916748D01*
X-11375656Y-43939324D01*
X-11482740Y-43952648D01*
X-11572357Y-43955261D01*
X-11631083Y-43946386D01*
X-11718688Y-43897936D01*
X-11771776Y-43829182D01*
X-11790861Y-43743594D01*
X-11776455Y-43644639D01*
X-11729072Y-43535787D01*
X-11649224Y-43420504D01*
X-11537425Y-43302260D01*
X-11535586Y-43300555D01*
X-11379005Y-43174094D01*
X-11211458Y-43072012D01*
X-11040976Y-42998017D01*
X-10875590Y-42955813D01*
X-10769840Y-42947166D01*
X-10640651Y-42958931D01*
G36*
X-42895721Y-50023700D02*
G01*
X-42913051Y-50077662D01*
X-42941346Y-50156019D01*
X-42978020Y-50251400D01*
X-42991014Y-50284087D01*
X-43207592Y-50848357D01*
X-43394445Y-51385588D01*
X-43551288Y-51894936D01*
X-43648698Y-52256704D01*
X-43721477Y-52568730D01*
X-43781027Y-52871542D01*
X-43826905Y-53160707D01*
X-43858665Y-53431791D01*
X-43875862Y-53680361D01*
X-43878053Y-53901985D01*
X-43864791Y-54092230D01*
X-43844714Y-54210438D01*
X-43829374Y-54284274D01*
X-43820456Y-54340323D01*
X-43819689Y-54367483D01*
X-43820135Y-54368190D01*
X-43840673Y-54361495D01*
X-43888909Y-54336161D01*
X-43956982Y-54296519D01*
X-44014986Y-54260844D01*
X-44274192Y-54082499D01*
X-44492695Y-53897911D01*
X-44671887Y-53705350D01*
X-44813156Y-53503082D01*
X-44917895Y-53289375D01*
X-44987492Y-53062498D01*
X-44991480Y-53044216D01*
X-45018292Y-52816852D01*
X-45005264Y-52579264D01*
X-44953246Y-52332905D01*
X-44863089Y-52079228D01*
X-44735643Y-51819686D01*
X-44571760Y-51555731D01*
X-44372290Y-51288818D01*
X-44138084Y-51020397D01*
X-43869992Y-50751924D01*
X-43568865Y-50484850D01*
X-43423417Y-50365996D01*
X-43339223Y-50300709D01*
X-43247310Y-50232471D01*
X-43154121Y-50165700D01*
X-43066097Y-50104815D01*
X-42989680Y-50054232D01*
X-42931313Y-50018371D01*
X-42897437Y-50001649D01*
X-42891939Y-50001505D01*
X-42895721Y-50023700D01*
G37*
X-42895721Y-50023700D02*
X-42913051Y-50077662D01*
X-42941346Y-50156019D01*
X-42978020Y-50251400D01*
X-42991014Y-50284087D01*
X-43207592Y-50848357D01*
X-43394445Y-51385588D01*
X-43551288Y-51894936D01*
X-43648698Y-52256704D01*
X-43721477Y-52568730D01*
X-43781027Y-52871542D01*
X-43826905Y-53160707D01*
X-43858665Y-53431791D01*
X-43875862Y-53680361D01*
X-43878053Y-53901985D01*
X-43864791Y-54092230D01*
X-43844714Y-54210438D01*
X-43829374Y-54284274D01*
X-43820456Y-54340323D01*
X-43819689Y-54367483D01*
X-43820135Y-54368190D01*
X-43840673Y-54361495D01*
X-43888909Y-54336161D01*
X-43956982Y-54296519D01*
X-44014986Y-54260844D01*
X-44274192Y-54082499D01*
X-44492695Y-53897911D01*
X-44671887Y-53705350D01*
X-44813156Y-53503082D01*
X-44917895Y-53289375D01*
X-44987492Y-53062498D01*
X-44991480Y-53044216D01*
X-45018292Y-52816852D01*
X-45005264Y-52579264D01*
X-44953246Y-52332905D01*
X-44863089Y-52079228D01*
X-44735643Y-51819686D01*
X-44571760Y-51555731D01*
X-44372290Y-51288818D01*
X-44138084Y-51020397D01*
X-43869992Y-50751924D01*
X-43568865Y-50484850D01*
X-43423417Y-50365996D01*
X-43339223Y-50300709D01*
X-43247310Y-50232471D01*
X-43154121Y-50165700D01*
X-43066097Y-50104815D01*
X-42989680Y-50054232D01*
X-42931313Y-50018371D01*
X-42897437Y-50001649D01*
X-42891939Y-50001505D01*
X-42895721Y-50023700D01*
G36*
X10531172Y-23552215D02*
G01*
X11001138Y-23571867D01*
X11450722Y-23607255D01*
X11853333Y-23655981D01*
X12274018Y-23729969D01*
X12668991Y-23825664D01*
X13036745Y-23942154D01*
X13375772Y-24078526D01*
X13684568Y-24233866D01*
X13961623Y-24407262D01*
X14205433Y-24597799D01*
X14414490Y-24804564D01*
X14587288Y-25026645D01*
X14722320Y-25263128D01*
X14794190Y-25438550D01*
X14851458Y-25603937D01*
X15023294Y-25440865D01*
X15372781Y-25135342D01*
X15736741Y-24868044D01*
X16113985Y-24639611D01*
X16503323Y-24450682D01*
X16903568Y-24301897D01*
X17313529Y-24193897D01*
X17356667Y-24185034D01*
X17550675Y-24151665D01*
X17761240Y-24124854D01*
X17975644Y-24105623D01*
X18181165Y-24094993D01*
X18365083Y-24093985D01*
X18446750Y-24097523D01*
X18650543Y-24112150D01*
X18879556Y-24130950D01*
X19123769Y-24152927D01*
X19373165Y-24177088D01*
X19617722Y-24202436D01*
X19847423Y-24227976D01*
X20052248Y-24252713D01*
X20181081Y-24269800D01*
X20665444Y-24353430D01*
X21119120Y-24465448D01*
X21543711Y-24606862D01*
X21940817Y-24778680D01*
X22312037Y-24981910D01*
X22658972Y-25217558D01*
X22983223Y-25486632D01*
X23286389Y-25790141D01*
X23570072Y-26129092D01*
X23835870Y-26504491D01*
X23907047Y-26615858D01*
X23979363Y-26735468D01*
X24052903Y-26864145D01*
X24124478Y-26995566D01*
X24190901Y-27123405D01*
X24248984Y-27241338D01*
X24295537Y-27343040D01*
X24327374Y-27422188D01*
X24341306Y-27472456D01*
X24341667Y-27478034D01*
X24338681Y-27504662D01*
X24325544Y-27528127D01*
X24295988Y-27553191D01*
X24243744Y-27584617D01*
X24162543Y-27627168D01*
X24111448Y-27652938D01*
X23994107Y-27710053D01*
X23863723Y-27770773D01*
X23739461Y-27826286D01*
X23672239Y-27854910D01*
X23486075Y-27940751D01*
X23338787Y-28028582D01*
X23226920Y-28120629D01*
X23181686Y-28170791D01*
X23076504Y-28326823D01*
X22978489Y-28523986D01*
X22887842Y-28761652D01*
X22804766Y-29039195D01*
X22729465Y-29355988D01*
X22662140Y-29711404D01*
X22640813Y-29842788D01*
X22620055Y-29965645D01*
X22599529Y-30068492D01*
X22580742Y-30144701D01*
X22565199Y-30187645D01*
X22561166Y-30193270D01*
X22528688Y-30209701D01*
X22465496Y-30231409D01*
X22382299Y-30254936D01*
X22330833Y-30267647D01*
X22182904Y-30305660D01*
X22013045Y-30354741D01*
X21835516Y-30410353D01*
X21664576Y-30467957D01*
X21514486Y-30523014D01*
X21459006Y-30545146D01*
X21355602Y-30582901D01*
X21239073Y-30618220D01*
X21145854Y-30640971D01*
X20888298Y-30706076D01*
X20616635Y-30797915D01*
X20344334Y-30911100D01*
X20084866Y-31040247D01*
X19942953Y-31121932D01*
X19696655Y-31282962D01*
X19471667Y-31454214D01*
X19261411Y-31641984D01*
X19059309Y-31852567D01*
X18858783Y-32092259D01*
X18678690Y-32331863D01*
X18635464Y-32391856D01*
X18297690Y-32367240D01*
X17880273Y-32355341D01*
X17476933Y-32382186D01*
X17083987Y-32448524D01*
X16697754Y-32555103D01*
X16314550Y-32702671D01*
X16065500Y-32820848D01*
X15696345Y-33031259D01*
X15346290Y-33277229D01*
X15012870Y-33560602D01*
X14809337Y-33760100D01*
X14721082Y-33850468D01*
X14656370Y-33914033D01*
X14609869Y-33954946D01*
X14576247Y-33977361D01*
X14550171Y-33985430D01*
X14526309Y-33983306D01*
X14523587Y-33982627D01*
X14131380Y-33901651D01*
X13728968Y-33860254D01*
X13314942Y-33858404D01*
X12887893Y-33896070D01*
X12612495Y-33939896D01*
X12492988Y-33963646D01*
X12366282Y-33991549D01*
X12239489Y-34021734D01*
X12119722Y-34052327D01*
X12014093Y-34081454D01*
X11929715Y-34107244D01*
X11873700Y-34127822D01*
X11853780Y-34139695D01*
X11830040Y-34153844D01*
X11776162Y-34177480D01*
X11702059Y-34206374D01*
X11669753Y-34218178D01*
X11496757Y-34280227D01*
X11645325Y-34502072D01*
X11980703Y-35035439D01*
X12282594Y-35583053D01*
X12549664Y-36141573D01*
X12780580Y-36707662D01*
X12974005Y-37277979D01*
X13128607Y-37849184D01*
X13243052Y-38417937D01*
X13264599Y-38555083D01*
X13277363Y-38668031D01*
X13287743Y-38813662D01*
X13295692Y-38983966D01*
X13301160Y-39170935D01*
X13304099Y-39366560D01*
X13304460Y-39562830D01*
X13302195Y-39751739D01*
X13297254Y-39925275D01*
X13289590Y-40075430D01*
X13279152Y-40194196D01*
X13274777Y-40227250D01*
X13254246Y-40352444D01*
X13228686Y-40489504D01*
X13199679Y-40631706D01*
X13168806Y-40772324D01*
X13137648Y-40904637D01*
X13107786Y-41021919D01*
X13080800Y-41117448D01*
X13058273Y-41184499D01*
X13042315Y-41215830D01*
X13010200Y-41227895D01*
X12939569Y-41239988D01*
X12834237Y-41251887D01*
X12698022Y-41263367D01*
X12534739Y-41274207D01*
X12348204Y-41284182D01*
X12142234Y-41293070D01*
X11920644Y-41300649D01*
X11687251Y-41306694D01*
X11445872Y-41310983D01*
X11405363Y-41311508D01*
X10523477Y-41322337D01*
X10554265Y-41409600D01*
X10580633Y-41473596D01*
X10619576Y-41555888D01*
X10660513Y-41634639D01*
X10809407Y-41862848D01*
X10992267Y-42066797D01*
X11207814Y-42245675D01*
X11454768Y-42398671D01*
X11731850Y-42524976D01*
X12037782Y-42623778D01*
X12319000Y-42685434D01*
X12467051Y-42705004D01*
X12647622Y-42718366D01*
X12851362Y-42725581D01*
X13068926Y-42726708D01*
X13290963Y-42721807D01*
X13508127Y-42710939D01*
X13711070Y-42694164D01*
X13864167Y-42675487D01*
X14265937Y-42606946D01*
X14692792Y-42515043D01*
X15136146Y-42402077D01*
X15587413Y-42270345D01*
X16038007Y-42122144D01*
X16339777Y-42013083D01*
X16431016Y-41980466D01*
X16508767Y-41955685D01*
X16563935Y-41941450D01*
X16586245Y-41939650D01*
X16614579Y-41956561D01*
X16665744Y-41992098D01*
X16729159Y-42038889D01*
X16735311Y-42043556D01*
X16984482Y-42206575D01*
X17257682Y-42335352D01*
X17554022Y-42429868D01*
X17872614Y-42490104D01*
X18212567Y-42516040D01*
X18572994Y-42507658D01*
X18953004Y-42464937D01*
X19351708Y-42387859D01*
X19768218Y-42276404D01*
X20201644Y-42130554D01*
X20231635Y-42119414D01*
X20674833Y-41940224D01*
X21135121Y-41728122D01*
X21607182Y-41486113D01*
X22085703Y-41217205D01*
X22565367Y-40924403D01*
X23040861Y-40610714D01*
X23506869Y-40279144D01*
X23576257Y-40227579D01*
X23675019Y-40155110D01*
X23763784Y-40092510D01*
X23836390Y-40043922D01*
X23886677Y-40013494D01*
X23907061Y-40005000D01*
X23937054Y-40015448D01*
X23994910Y-40043958D01*
X24072520Y-40086272D01*
X24161773Y-40138133D01*
X24169007Y-40142467D01*
X24493151Y-40315675D01*
X24818091Y-40446560D01*
X25143647Y-40535121D01*
X25469642Y-40581360D01*
X25795896Y-40585275D01*
X26122232Y-40546866D01*
X26448470Y-40466132D01*
X26774433Y-40343073D01*
X27099941Y-40177690D01*
X27149121Y-40148992D01*
X27476534Y-39933408D01*
X27801188Y-39677580D01*
X28121284Y-39383588D01*
X28435022Y-39053510D01*
X28740603Y-38689426D01*
X29036227Y-38293413D01*
X29320094Y-37867552D01*
X29590406Y-37413920D01*
X29717711Y-37181484D01*
X29769227Y-37088165D01*
X29816449Y-37008857D01*
X29854711Y-36950970D01*
X29879347Y-36921917D01*
X29882215Y-36920224D01*
X29916369Y-36923410D01*
X29973587Y-36943902D01*
X30033016Y-36972849D01*
X30221491Y-37055853D01*
X30407439Y-37098431D01*
X30588479Y-37100170D01*
X30679701Y-37084842D01*
X30749086Y-37076146D01*
X30797949Y-37084252D01*
X30798770Y-37084679D01*
X30822901Y-37109055D01*
X30866727Y-37165122D01*
X30927434Y-37248715D01*
X31002210Y-37355671D01*
X31088242Y-37481825D01*
X31182718Y-37623013D01*
X31282825Y-37775072D01*
X31385750Y-37933837D01*
X31488681Y-38095144D01*
X31584666Y-38248166D01*
X31827028Y-38642932D01*
X32087273Y-39075998D01*
X32365368Y-39547309D01*
X32661283Y-40056809D01*
X32974985Y-40604443D01*
X33306444Y-41190155D01*
X33655626Y-41813888D01*
X34022501Y-42475589D01*
X34407036Y-43175200D01*
X34675471Y-43666833D01*
X34881959Y-44046344D01*
X35068556Y-44390122D01*
X35235930Y-44699438D01*
X35384750Y-44975563D01*
X35515685Y-45219770D01*
X35629402Y-45433330D01*
X35726570Y-45617516D01*
X35807858Y-45773597D01*
X35873934Y-45902848D01*
X35925467Y-46006538D01*
X35963124Y-46085941D01*
X35987575Y-46142327D01*
X35999488Y-46176969D01*
X36000834Y-46188366D01*
X35980712Y-46224922D01*
X35927725Y-46271118D01*
X35838632Y-46329764D01*
X35835167Y-46331867D01*
X35676783Y-46440499D01*
X35556601Y-46552474D01*
X35470496Y-46671818D01*
X35453057Y-46704802D01*
X35425553Y-46769101D01*
X35409679Y-46833105D01*
X35402634Y-46912293D01*
X35401458Y-46990000D01*
X35403387Y-47084819D01*
X35411669Y-47155994D01*
X35430440Y-47221688D01*
X35463834Y-47300066D01*
X35479731Y-47333834D01*
X35530273Y-47435013D01*
X35581668Y-47525436D01*
X35639955Y-47613804D01*
X35711175Y-47708819D01*
X35801366Y-47819181D01*
X35882979Y-47914812D01*
X36204045Y-48312793D01*
X36485850Y-48717187D01*
X36727794Y-49126865D01*
X36929277Y-49540701D01*
X37089699Y-49957569D01*
X37208459Y-50376342D01*
X37219040Y-50422868D01*
X37261959Y-50632084D01*
X37291607Y-50818604D01*
X37309830Y-50999274D01*
X37318479Y-51190940D01*
X37319823Y-51341505D01*
X37305506Y-51680432D01*
X37262719Y-52001826D01*
X37189370Y-52313508D01*
X37083370Y-52623295D01*
X36942627Y-52939006D01*
X36840016Y-53135658D01*
X36756436Y-53282687D01*
X36667299Y-53429883D01*
X36575886Y-53572671D01*
X36485481Y-53706478D01*
X36399367Y-53826730D01*
X36320828Y-53928854D01*
X36253146Y-54008277D01*
X36199605Y-54060424D01*
X36163489Y-54080722D01*
X36161504Y-54080833D01*
X36135937Y-54066405D01*
X36087113Y-54026651D01*
X36021003Y-53966867D01*
X35943583Y-53892347D01*
X35902677Y-53851398D01*
X35810282Y-53759545D01*
X35715150Y-53668116D01*
X35627120Y-53586373D01*
X35556032Y-53523578D01*
X35541819Y-53511727D01*
X35414010Y-53412223D01*
X35276036Y-53313791D01*
X35133848Y-53219882D01*
X34993397Y-53133944D01*
X34860633Y-53059431D01*
X34741508Y-52999791D01*
X34641972Y-52958475D01*
X34567977Y-52938934D01*
X34552064Y-52937833D01*
X34452310Y-52955964D01*
X34340705Y-53006678D01*
X34223847Y-53084456D01*
X34108335Y-53183780D01*
X34000767Y-53299130D01*
X33907741Y-53424988D01*
X33850749Y-53524427D01*
X33793184Y-53649639D01*
X33750163Y-53769122D01*
X33719901Y-53892339D01*
X33700612Y-54028749D01*
X33690511Y-54187814D01*
X33687813Y-54378995D01*
X33687835Y-54387750D01*
X33688394Y-54494728D01*
X33689998Y-54584015D01*
X33693605Y-54663039D01*
X33700172Y-54739231D01*
X33710656Y-54820023D01*
X33726017Y-54912843D01*
X33747211Y-55025122D01*
X33775197Y-55164292D01*
X33809254Y-55329666D01*
X33872494Y-55640890D01*
X33925936Y-55916813D01*
X33970311Y-56163135D01*
X34006349Y-56385560D01*
X34034780Y-56589790D01*
X34056333Y-56781525D01*
X34071739Y-56966468D01*
X34081729Y-57150321D01*
X34087031Y-57338786D01*
X34088400Y-57509833D01*
X34083945Y-57793092D01*
X34069643Y-58041515D01*
X34044330Y-58261700D01*
X34006842Y-58460245D01*
X33956014Y-58643746D01*
X33890683Y-58818803D01*
X33836264Y-58938683D01*
X33753533Y-59093310D01*
X33661260Y-59231601D01*
X33551198Y-59364136D01*
X33415099Y-59501493D01*
X33352426Y-59559339D01*
X33060165Y-59806546D01*
X32773523Y-60013673D01*
X32489840Y-60182156D01*
X32206454Y-60313430D01*
X31920704Y-60408930D01*
X31678436Y-60462294D01*
X31535871Y-60482538D01*
X31398990Y-60492412D01*
X31260709Y-60491182D01*
X31113947Y-60478115D01*
X30951623Y-60452478D01*
X30766653Y-60413536D01*
X30551957Y-60360556D01*
X30458833Y-60335983D01*
X30259428Y-60284006D01*
X30092200Y-60243950D01*
X29949132Y-60214458D01*
X29822205Y-60194174D01*
X29703398Y-60181740D01*
X29584693Y-60175801D01*
X29505842Y-60174783D01*
X29210231Y-60192507D01*
X28935198Y-60246134D01*
X28681767Y-60335209D01*
X28450958Y-60459280D01*
X28243795Y-60617893D01*
X28061300Y-60810593D01*
X28054691Y-60818800D01*
X27981394Y-60913712D01*
X27907254Y-61017087D01*
X27828574Y-61134630D01*
X27741655Y-61272049D01*
X27642800Y-61435052D01*
X27528311Y-61629345D01*
X27517489Y-61647916D01*
X27368920Y-61895396D01*
X27231482Y-62106987D01*
X27101696Y-62286533D01*
X26976081Y-62437877D01*
X26851160Y-62564863D01*
X26723453Y-62671336D01*
X26589480Y-62761138D01*
X26445762Y-62838113D01*
X26435860Y-62842830D01*
X26351368Y-62880345D01*
X26287913Y-62899035D01*
X26229473Y-62900540D01*
X26160027Y-62886498D01*
X26119667Y-62875180D01*
X26067552Y-62860319D01*
X25983630Y-62836759D01*
X25876916Y-62807015D01*
X25756424Y-62773600D01*
X25664583Y-62748235D01*
X25168931Y-62603461D01*
X24693608Y-62448344D01*
X24242803Y-62284510D01*
X23820704Y-62113588D01*
X23431499Y-61937205D01*
X23079376Y-61756989D01*
X22999334Y-61712491D01*
X22806975Y-61599754D01*
X22623669Y-61483451D01*
X22440334Y-61357274D01*
X22247890Y-61214911D01*
X22037256Y-61050054D01*
X21981583Y-61005306D01*
X21807378Y-60869204D01*
X21654481Y-60760434D01*
X21515870Y-60674874D01*
X21384518Y-60608403D01*
X21253403Y-60556898D01*
X21176052Y-60532649D01*
X21059264Y-60507998D01*
X20914492Y-60491084D01*
X20753848Y-60482059D01*
X20589441Y-60481075D01*
X20433383Y-60488284D01*
X20297783Y-60503838D01*
X20218368Y-60520633D01*
X19950706Y-60615420D01*
X19685620Y-60750060D01*
X19426707Y-60922085D01*
X19177563Y-61129024D01*
X18941788Y-61368411D01*
X18880667Y-61438547D01*
X18809777Y-61521223D01*
X18741650Y-61599264D01*
X18685086Y-61662661D01*
X18654721Y-61695441D01*
X18587526Y-61765373D01*
X18485388Y-61726560D01*
X18324198Y-61648102D01*
X18159058Y-61536098D01*
X17998672Y-61397401D01*
X17851739Y-61238866D01*
X17826460Y-61207573D01*
X17743244Y-61095894D01*
X17669615Y-60985158D01*
X17609763Y-60882686D01*
X17567879Y-60795802D01*
X17548151Y-60731827D01*
X17547167Y-60719452D01*
X17550592Y-60688990D01*
X17560461Y-60620511D01*
X17576159Y-60517738D01*
X17597073Y-60384393D01*
X17622589Y-60224201D01*
X17652094Y-60040884D01*
X17684974Y-59838166D01*
X17720616Y-59619770D01*
X17758406Y-59389420D01*
X17797731Y-59150839D01*
X17837977Y-58907749D01*
X17878531Y-58663876D01*
X17918780Y-58422941D01*
X17958109Y-58188668D01*
X17995905Y-57964781D01*
X18031556Y-57755003D01*
X18064446Y-57563057D01*
X18093964Y-57392666D01*
X18115856Y-57268057D01*
X18145542Y-57104186D01*
X18170557Y-56977719D01*
X18192666Y-56884216D01*
X18213637Y-56819239D01*
X18235232Y-56778350D01*
X18259219Y-56757110D01*
X18287363Y-56751080D01*
X18319750Y-56755442D01*
X18343766Y-56752159D01*
X18376396Y-56730014D01*
X18422040Y-56684811D01*
X18485100Y-56612355D01*
X18540171Y-56545383D01*
X18682296Y-56373262D01*
X18801409Y-56235690D01*
X18897381Y-56132803D01*
X18970082Y-56064736D01*
X19019382Y-56031626D01*
X19033730Y-56028166D01*
X19076038Y-56037207D01*
X19139682Y-56060562D01*
X19191584Y-56083968D01*
X19303969Y-56123927D01*
X19437318Y-56148745D01*
X19572180Y-56155882D01*
X19671215Y-56146580D01*
X19745866Y-56132575D01*
X19661483Y-55956717D01*
X19598154Y-55813641D01*
X19555460Y-55692484D01*
X19534579Y-55597348D01*
X19536687Y-55532338D01*
X19538332Y-55527313D01*
X19565051Y-55478987D01*
X19616366Y-55406573D01*
X19687067Y-55316044D01*
X19771947Y-55213375D01*
X19865796Y-55104540D01*
X19963404Y-54995513D01*
X20059564Y-54892270D01*
X20149065Y-54800784D01*
X20226700Y-54727029D01*
X20264316Y-54694666D01*
X20322381Y-54643992D01*
X20364612Y-54600562D01*
X20382372Y-54573318D01*
X20382472Y-54572354D01*
X20372707Y-54535144D01*
X20344738Y-54470539D01*
X20302915Y-54386973D01*
X20251585Y-54292878D01*
X20195097Y-54196685D01*
X20159155Y-54139324D01*
X20104330Y-54060888D01*
X20031836Y-53966190D01*
X19953035Y-53869779D01*
X19907860Y-53817616D01*
X19844151Y-53743667D01*
X19792620Y-53679391D01*
X19759012Y-53632256D01*
X19748824Y-53610958D01*
X19755079Y-53579216D01*
X19777221Y-53550689D01*
X19821539Y-53521011D01*
X19894325Y-53485815D01*
X19983038Y-53448394D01*
X20140023Y-53389509D01*
X20296425Y-53340357D01*
X20442333Y-53303527D01*
X20567837Y-53281604D01*
X20641530Y-53276500D01*
X20743333Y-53276500D01*
X20742966Y-53123041D01*
X20737786Y-53016727D01*
X20724762Y-52900061D01*
X20711260Y-52821416D01*
X20677697Y-52702926D01*
X20626591Y-52570356D01*
X20564724Y-52438471D01*
X20498881Y-52322036D01*
X20449817Y-52252297D01*
X20397014Y-52174771D01*
X20380588Y-52116415D01*
X20401540Y-52075553D01*
X20460874Y-52050509D01*
X20559591Y-52039606D01*
X20577255Y-52039099D01*
X20712633Y-52024437D01*
X20834491Y-51983438D01*
X20953348Y-51911463D01*
X21051785Y-51829884D01*
X21106045Y-51778875D01*
X21131992Y-51748258D01*
X21133577Y-51731013D01*
X21114748Y-51720124D01*
X21113750Y-51719765D01*
X20978185Y-51663391D01*
X20843184Y-51592793D01*
X20717134Y-51513607D01*
X20608424Y-51431469D01*
X20525443Y-51352012D01*
X20485050Y-51297416D01*
X20453041Y-51209522D01*
X20437401Y-51092580D01*
X20437982Y-50956521D01*
X20454635Y-50811275D01*
X20487213Y-50666774D01*
X20494869Y-50641250D01*
X20518356Y-50563302D01*
X20534986Y-50502581D01*
X20542140Y-50468880D01*
X20541909Y-50465266D01*
X20517581Y-50467684D01*
X20464455Y-50490143D01*
X20388779Y-50528944D01*
X20296805Y-50580386D01*
X20194781Y-50640770D01*
X20088959Y-50706395D01*
X19985589Y-50773563D01*
X19890921Y-50838572D01*
X19811204Y-50897723D01*
X19810683Y-50898132D01*
X19724231Y-50958525D01*
X19658520Y-50986174D01*
X19608972Y-50982263D01*
X19578630Y-50958103D01*
X19567982Y-50936417D01*
X19563737Y-50899811D01*
X19566090Y-50841131D01*
X19575236Y-50753222D01*
X19586622Y-50664163D01*
X19600002Y-50561610D01*
X19611008Y-50473031D01*
X19618540Y-50407588D01*
X19621497Y-50374444D01*
X19621505Y-50373768D01*
X19612337Y-50360461D01*
X19580776Y-50351744D01*
X19520736Y-50346845D01*
X19426135Y-50344994D01*
X19393963Y-50344916D01*
X19287186Y-50343772D01*
X19210900Y-50339089D01*
X19153293Y-50328992D01*
X19102555Y-50311608D01*
X19060583Y-50292000D01*
X18954750Y-50239083D01*
X18928854Y-50028943D01*
X18908579Y-49898353D01*
X18880926Y-49791138D01*
X18840727Y-49688399D01*
X18828499Y-49662014D01*
X18754039Y-49505224D01*
X18644035Y-49601453D01*
X18473505Y-49728067D01*
X18291176Y-49817994D01*
X18091615Y-49873157D01*
X17869391Y-49895480D01*
X17811750Y-49896164D01*
X17581544Y-49878474D01*
X17339181Y-49829273D01*
X17096369Y-49752013D01*
X16864820Y-49650145D01*
X16737542Y-49579483D01*
X16615833Y-49505768D01*
X16615833Y-49373488D01*
X16632302Y-49211095D01*
X16683032Y-49070512D01*
X16766042Y-48950619D01*
X16807601Y-48899115D01*
X16831448Y-48860867D01*
X16833244Y-48845891D01*
X16802107Y-48835903D01*
X16738543Y-48821316D01*
X16651974Y-48803909D01*
X16551824Y-48785462D01*
X16447515Y-48767753D01*
X16348470Y-48752561D01*
X16312677Y-48747619D01*
X16190395Y-48736189D01*
X16037153Y-48729167D01*
X15864084Y-48726448D01*
X15682319Y-48727928D01*
X15502992Y-48733503D01*
X15337233Y-48743069D01*
X15196177Y-48756520D01*
X15182876Y-48758203D01*
X14793210Y-48824322D01*
X14396757Y-48920625D01*
X14005794Y-49043372D01*
X13632596Y-49188826D01*
X13375601Y-49308622D01*
X13294786Y-49347394D01*
X13240428Y-49367423D01*
X13202487Y-49371413D01*
X13173178Y-49363118D01*
X13149624Y-49350151D01*
X13135766Y-49331475D01*
X13129908Y-49297829D01*
X13130352Y-49239951D01*
X13135021Y-49154833D01*
X13138355Y-49055080D01*
X13137039Y-48957475D01*
X13131415Y-48879949D01*
X13129537Y-48866776D01*
X13112750Y-48764470D01*
X12911799Y-48991149D01*
X12813918Y-49097940D01*
X12700375Y-49216186D01*
X12585979Y-49330735D01*
X12494935Y-49417767D01*
X12392712Y-49510484D01*
X12314685Y-49573589D01*
X12255121Y-49607409D01*
X12208288Y-49612273D01*
X12168454Y-49588507D01*
X12129885Y-49536440D01*
X12086850Y-49456400D01*
X12079418Y-49441525D01*
X12021711Y-49302625D01*
X11978103Y-49151673D01*
X11951525Y-49002487D01*
X11944906Y-48868885D01*
X11948418Y-48823575D01*
X11961323Y-48720401D01*
X11876835Y-48787317D01*
X11732052Y-48918593D01*
X11583326Y-49084038D01*
X11435659Y-49276441D01*
X11294049Y-49488594D01*
X11163498Y-49713286D01*
X11049006Y-49943308D01*
X11005002Y-50044356D01*
X10958070Y-50145903D01*
X10916085Y-50209436D01*
X10875559Y-50238428D01*
X10833006Y-50236349D01*
X10818657Y-50229832D01*
X10798928Y-50218296D01*
X10783707Y-50203592D01*
X10771040Y-50179240D01*
X10758973Y-50138758D01*
X10745551Y-50075663D01*
X10728821Y-49983475D01*
X10708093Y-49863102D01*
X10689251Y-49758297D01*
X10671693Y-49670281D01*
X10657052Y-49606554D01*
X10646958Y-49574617D01*
X10644882Y-49572333D01*
X10626018Y-49588206D01*
X10593201Y-49628567D01*
X10573449Y-49655990D01*
X10530701Y-49710531D01*
X10473913Y-49773606D01*
X10411235Y-49837307D01*
X10350813Y-49893726D01*
X10300795Y-49934954D01*
X10269327Y-49953084D01*
X10267100Y-49953333D01*
X10229592Y-49936735D01*
X10192655Y-49898076D01*
X10169691Y-49854060D01*
X10168589Y-49830542D01*
X10180867Y-49779694D01*
X10198612Y-49692604D01*
X10220873Y-49574874D01*
X10246701Y-49432106D01*
X10275148Y-49269902D01*
X10305264Y-49093865D01*
X10336099Y-48909598D01*
X10366704Y-48722701D01*
X10396131Y-48538778D01*
X10423430Y-48363430D01*
X10447652Y-48202261D01*
X10465184Y-48080083D01*
X10487700Y-47911990D01*
X10511000Y-47725993D01*
X10534680Y-47526312D01*
X10558339Y-47317173D01*
X10581577Y-47102796D01*
X10603990Y-46887406D01*
X10625179Y-46675225D01*
X10644740Y-46470477D01*
X10662273Y-46277383D01*
X10677376Y-46100168D01*
X10689647Y-45943054D01*
X10698685Y-45810263D01*
X10704087Y-45706019D01*
X10705454Y-45634545D01*
X10702383Y-45600064D01*
X10701221Y-45597998D01*
X10691098Y-45604268D01*
X10689167Y-45621675D01*
X10682422Y-45653755D01*
X10663362Y-45720504D01*
X10633747Y-45816664D01*
X10595336Y-45936979D01*
X10549889Y-46076194D01*
X10499166Y-46229050D01*
X10444928Y-46390292D01*
X10388934Y-46554664D01*
X10332944Y-46716907D01*
X10278718Y-46871767D01*
X10228016Y-47013987D01*
X10182598Y-47138310D01*
X10170797Y-47169916D01*
X10095352Y-47368211D01*
X10012626Y-47581008D01*
X9924083Y-47804858D01*
X9831188Y-48036315D01*
X9735405Y-48271931D01*
X9638196Y-48508259D01*
X9541028Y-48741851D01*
X9445363Y-48969261D01*
X9352665Y-49187040D01*
X9264399Y-49391742D01*
X9182028Y-49579918D01*
X9107017Y-49748123D01*
X9040830Y-49892907D01*
X8984930Y-50010825D01*
X8940782Y-50098429D01*
X8909849Y-50152270D01*
X8897904Y-50167223D01*
X8870888Y-50178818D01*
X8827337Y-50176270D01*
X8757147Y-50158648D01*
X8735871Y-50152273D01*
X8623918Y-50128861D01*
X8482086Y-50115509D01*
X8321587Y-50112097D01*
X8153634Y-50118503D01*
X7989438Y-50134607D01*
X7840212Y-50160289D01*
X7832658Y-50161978D01*
X7722687Y-50186188D01*
X7646424Y-50200256D01*
X7596494Y-50204254D01*
X7565520Y-50198251D01*
X7546128Y-50182321D01*
X7535251Y-50164845D01*
X7527463Y-50136163D01*
X7531532Y-50093884D01*
X7549183Y-50030004D01*
X7582142Y-49936515D01*
X7587643Y-49921764D01*
X7624481Y-49815602D01*
X7659422Y-49701069D01*
X7689629Y-49589015D01*
X7712262Y-49490290D01*
X7724485Y-49415741D01*
X7725833Y-49393493D01*
X7714209Y-49382294D01*
X7675924Y-49388832D01*
X7605860Y-49414072D01*
X7596424Y-49417858D01*
X7506632Y-49447233D01*
X7406460Y-49469171D01*
X7306677Y-49482555D01*
X7218051Y-49486269D01*
X7151349Y-49479196D01*
X7123095Y-49466924D01*
X7100291Y-49423392D01*
X7091618Y-49347360D01*
X7096918Y-49246180D01*
X7116033Y-49127199D01*
X7131837Y-49058949D01*
X7162869Y-48960777D01*
X7212053Y-48834315D01*
X7275919Y-48687670D01*
X7350994Y-48528947D01*
X7403697Y-48424041D01*
X7390429Y-48414222D01*
X7343680Y-48409166D01*
X7272002Y-48408592D01*
X7183948Y-48412220D01*
X7088070Y-48419770D01*
X6992918Y-48430961D01*
X6940147Y-48439234D01*
X6730263Y-48486809D01*
X6526046Y-48553208D01*
X6355995Y-48627366D01*
X6287603Y-48658201D01*
X6228030Y-48678528D01*
X6200213Y-48683333D01*
X6162787Y-48669615D01*
X6107091Y-48633529D01*
X6044751Y-48582681D01*
X6040710Y-48579013D01*
X5917489Y-48480465D01*
X5785831Y-48405052D01*
X5639078Y-48350752D01*
X5470574Y-48315545D01*
X5273662Y-48297411D01*
X5101167Y-48293803D01*
X4907715Y-48297845D01*
X4734949Y-48310363D01*
X4568651Y-48333415D01*
X4394606Y-48369059D01*
X4198595Y-48419355D01*
X4159969Y-48430099D01*
X4050380Y-48459754D01*
X3972989Y-48474786D01*
X3919387Y-48472538D01*
X3881164Y-48450353D01*
X3849911Y-48405573D01*
X3817219Y-48335540D01*
X3810344Y-48319607D01*
X3755302Y-48152899D01*
X3720443Y-47961362D01*
X3707811Y-47758419D01*
X3710180Y-47662041D01*
X3714170Y-47560394D01*
X3712732Y-47495642D01*
X3705512Y-47462653D01*
X3695897Y-47455666D01*
X3667781Y-47466679D01*
X3614189Y-47496126D01*
X3544638Y-47538620D01*
X3511478Y-47560034D01*
X3390684Y-47649852D01*
X3266841Y-47760180D01*
X3150320Y-47880419D01*
X3051493Y-47999970D01*
X2988180Y-48094818D01*
X2938567Y-48177818D01*
X2899605Y-48228155D01*
X2862716Y-48250881D01*
X2819327Y-48251050D01*
X2760861Y-48233713D01*
X2755622Y-48231846D01*
X2604322Y-48199995D01*
X2440862Y-48208149D01*
X2265978Y-48255995D01*
X2080407Y-48343218D01*
X1884888Y-48469502D01*
X1680156Y-48634534D01*
X1566225Y-48739465D01*
X1467740Y-48830474D01*
X1390012Y-48894829D01*
X1335632Y-48930495D01*
X1313847Y-48937333D01*
X1270837Y-48917064D01*
X1231107Y-48859753D01*
X1195898Y-48770642D01*
X1166455Y-48654972D01*
X1144017Y-48517985D01*
X1129829Y-48364923D01*
X1125131Y-48201027D01*
X1125905Y-48144243D01*
X1127131Y-48043898D01*
X1125789Y-47960953D01*
X1122182Y-47903402D01*
X1116613Y-47879238D01*
X1115859Y-47878961D01*
X1089748Y-47886143D01*
X1034478Y-47905258D01*
X960270Y-47932713D01*
X930586Y-47944063D01*
X733262Y-48037141D01*
X530006Y-48164381D01*
X328253Y-48319778D01*
X135441Y-48497325D01*
X-40994Y-48691019D01*
X-122552Y-48794458D01*
X-198316Y-48890265D01*
X-258778Y-48951312D01*
X-309180Y-48979852D01*
X-354763Y-48978139D01*
X-400769Y-48948426D01*
X-424936Y-48924458D01*
X-467873Y-48884550D01*
X-532255Y-48831813D01*
X-604565Y-48777291D01*
X-608542Y-48774433D01*
X-682243Y-48716242D01*
X-727876Y-48668440D01*
X-740833Y-48639834D01*
X-737548Y-48605788D01*
X-728494Y-48538300D01*
X-714872Y-48445683D01*
X-697885Y-48336247D01*
X-688302Y-48276567D01*
X-660777Y-48097571D01*
X-629633Y-47877460D01*
X-595002Y-47617288D01*
X-557016Y-47318107D01*
X-515806Y-46980970D01*
X-471503Y-46606929D01*
X-424239Y-46197036D01*
X-382349Y-45825833D01*
X-361376Y-45637701D01*
X-340978Y-45453404D01*
X-320746Y-45269075D01*
X-300268Y-45080851D01*
X-279136Y-44884866D01*
X-256938Y-44677256D01*
X-233264Y-44454155D01*
X-207704Y-44211699D01*
X-179847Y-43946023D01*
X-149284Y-43653262D01*
X-115604Y-43329550D01*
X-78397Y-42971024D01*
X-42043Y-42620095D01*
X-22992Y-42450435D01*
X-5319Y-42322888D01*
X11009Y-42237260D01*
X26022Y-42193355D01*
X29114Y-42189314D01*
X44820Y-42179222D01*
X71720Y-42173066D01*
X115625Y-42170896D01*
X182342Y-42172761D01*
X277680Y-42178711D01*
X407446Y-42188794D01*
X457996Y-42192970D01*
X630844Y-42206525D01*
X814456Y-42219183D01*
X1011484Y-42231036D01*
X1224581Y-42242176D01*
X1456400Y-42252696D01*
X1709592Y-42262686D01*
X1986810Y-42272239D01*
X2290708Y-42281448D01*
X2623936Y-42290403D01*
X2989148Y-42299198D01*
X3388995Y-42307924D01*
X3826132Y-42316673D01*
X4254500Y-42324658D01*
X4783833Y-42329534D01*
X5288569Y-42324700D01*
X5766414Y-42310318D01*
X6215074Y-42286548D01*
X6632254Y-42253552D01*
X7015660Y-42211491D01*
X7362998Y-42160525D01*
X7671973Y-42100816D01*
X7771345Y-42077707D01*
X8043902Y-42001187D01*
X8281478Y-41913567D01*
X8482754Y-41815603D01*
X8646408Y-41708049D01*
X8771119Y-41591658D01*
X8855566Y-41467185D01*
X8861270Y-41455345D01*
X8891364Y-41376513D01*
X8907706Y-41303852D01*
X8909394Y-41246867D01*
X8895527Y-41215065D01*
X8884372Y-41211500D01*
X8842963Y-41209457D01*
X8765470Y-41203705D01*
X8657925Y-41194805D01*
X8526361Y-41183319D01*
X8376810Y-41169808D01*
X8215306Y-41154834D01*
X8047882Y-41138959D01*
X7880569Y-41122744D01*
X7719401Y-41106751D01*
X7570411Y-41091543D01*
X7439630Y-41077680D01*
X7397750Y-41073080D01*
X7129129Y-41042587D01*
X6821718Y-41006522D01*
X6478641Y-40965270D01*
X6103019Y-40919218D01*
X5697975Y-40868753D01*
X5266632Y-40814262D01*
X4812111Y-40756132D01*
X4337535Y-40694749D01*
X4226173Y-40680250D01*
X3086596Y-40531706D01*
X2924635Y-40403002D01*
X2790931Y-40300036D01*
X2649087Y-40197609D01*
X2496250Y-40094114D01*
X2329564Y-39987940D01*
X2146176Y-39877478D01*
X1943231Y-39761121D01*
X1717874Y-39637257D01*
X1467252Y-39504280D01*
X1188509Y-39360579D01*
X878791Y-39204545D01*
X535244Y-39034570D01*
X248071Y-38894250D01*
X-52670Y-38747011D01*
X-316866Y-38615371D01*
X-546712Y-38497864D01*
X-744407Y-38393023D01*
X-912145Y-38299381D01*
X-1052124Y-38215474D01*
X-1166539Y-38139833D01*
X-1257587Y-38070993D01*
X-1327464Y-38007487D01*
X-1378367Y-37947850D01*
X-1412491Y-37890615D01*
X-1432034Y-37834315D01*
X-1439191Y-37777484D01*
X-1439333Y-37767689D01*
X-1431757Y-37686338D01*
X-1405284Y-37614668D01*
X-1354303Y-37542636D01*
X-1273201Y-37460195D01*
X-1261478Y-37449400D01*
X-1136525Y-37352306D01*
X-971439Y-37252881D01*
X-765750Y-37150900D01*
X-518991Y-37046140D01*
X-230695Y-36938376D01*
X-97108Y-36892165D01*
X260868Y-36770927D01*
X135726Y-36745753D01*
X-225320Y-36660664D01*
X-580825Y-36552783D01*
X-922880Y-36425213D01*
X-1243573Y-36281060D01*
X-1534995Y-36123429D01*
X-1676652Y-36034301D01*
X-1808538Y-35939195D01*
X-1947690Y-35826226D01*
X-2084546Y-35704141D01*
X-2209542Y-35581684D01*
X-2313114Y-35467602D01*
X-2357306Y-35411833D01*
X-2414359Y-35327872D01*
X-2473810Y-35229730D01*
X-2512838Y-35157833D01*
X-2582203Y-35020250D01*
X-2582268Y-36106201D01*
X-2582333Y-37192153D01*
X-2517491Y-37344451D01*
X-2441605Y-37544253D01*
X-2377108Y-37757004D01*
X-2325987Y-37972908D01*
X-2290227Y-38182169D01*
X-2271816Y-38374991D01*
X-2272738Y-38541576D01*
X-2273319Y-38548933D01*
X-2303560Y-38747358D01*
X-2358532Y-38931764D01*
X-2434976Y-39093354D01*
X-2518773Y-39211250D01*
X-2533701Y-39234950D01*
X-2544949Y-39271536D01*
X-2553413Y-39327749D01*
X-2559988Y-39410329D01*
X-2565571Y-39526015D01*
X-2567557Y-39578385D01*
X-2572328Y-39691331D01*
X-2577746Y-39788737D01*
X-2583287Y-39863026D01*
X-2588426Y-39906624D01*
X-2590827Y-39914715D01*
X-2618184Y-39916914D01*
X-2676997Y-39907505D01*
X-2758765Y-39888860D01*
X-2854987Y-39863354D01*
X-2957161Y-39833359D01*
X-3056785Y-39801249D01*
X-3145359Y-39769398D01*
X-3212174Y-39741234D01*
X-3303421Y-39691521D01*
X-3394151Y-39631665D01*
X-3465413Y-39574222D01*
X-3468101Y-39571662D01*
X-3534321Y-39513867D01*
X-3620185Y-39446960D01*
X-3709117Y-39383744D01*
X-3725333Y-39372984D01*
X-3992287Y-39173345D01*
X-4231018Y-38942884D01*
X-4440483Y-38683237D01*
X-4619638Y-38396038D01*
X-4767438Y-38082922D01*
X-4882841Y-37745525D01*
X-4952896Y-37450172D01*
X-4986686Y-37241516D01*
X-5011673Y-37017162D01*
X-5026755Y-36792163D01*
X-5030830Y-36581570D01*
X-5026314Y-36447053D01*
X-5012310Y-36222856D01*
X-4811541Y-35991969D01*
X-4610772Y-35761083D01*
X-4625329Y-35581166D01*
X-4629598Y-35510121D01*
X-4633960Y-35404797D01*
X-4638179Y-35273247D01*
X-4642019Y-35123524D01*
X-4645243Y-34963680D01*
X-4647212Y-34834621D01*
X-4650665Y-34567527D01*
X-2582333Y-34567527D01*
X-2533659Y-34510939D01*
X-2482425Y-34469147D01*
X-2408533Y-34442955D01*
X-2369617Y-34435445D01*
X-2305768Y-34429663D01*
X-2210408Y-34426761D01*
X-2094247Y-34426517D01*
X-1967995Y-34428710D01*
X-1842361Y-34433117D01*
X-1728054Y-34439516D01*
X-1635784Y-34447686D01*
X-1608667Y-34451218D01*
X-1582439Y-34452945D01*
X-1577633Y-34445463D01*
X-1597615Y-34425711D01*
X-1645751Y-34390627D01*
X-1725408Y-34337152D01*
X-1756833Y-34316489D01*
X-1950092Y-34183825D01*
X-2117380Y-34054768D01*
X-2272379Y-33918086D01*
X-2418292Y-33773452D01*
X-2582333Y-33603200D01*
X-2582333Y-34567527D01*
X-4650665Y-34567527D01*
X-4654538Y-34267992D01*
X-4772014Y-34091437D01*
X-4923657Y-33833601D01*
X-5043652Y-33565768D01*
X-5116081Y-33341856D01*
X-5147642Y-33185108D01*
X-5167157Y-33007402D01*
X-5174313Y-32822423D01*
X-5168796Y-32643853D01*
X-5150292Y-32485373D01*
X-5137165Y-32422310D01*
X-5080420Y-32231985D01*
X-5005385Y-32037802D01*
X-4920006Y-31859589D01*
X-4890958Y-31807737D01*
X-4807027Y-31664391D01*
X-4868546Y-31527275D01*
X-4991264Y-31230033D01*
X-5085608Y-30949531D01*
X-5151300Y-30687825D01*
X-5188060Y-30446976D01*
X-5195609Y-30229043D01*
X-5173665Y-30036083D01*
X-5121951Y-29870157D01*
X-5099854Y-29824574D01*
X-5038630Y-29719035D01*
X-4961765Y-29603803D01*
X-4867055Y-29476237D01*
X-4752296Y-29333698D01*
X-4615286Y-29173546D01*
X-4453820Y-28993140D01*
X-4265695Y-28789841D01*
X-4048708Y-28561009D01*
X-4021544Y-28532666D01*
X-3907856Y-28413686D01*
X-3796095Y-28295856D01*
X-3691994Y-28185286D01*
X-3601286Y-28088083D01*
X-3529703Y-28010357D01*
X-3490247Y-27966517D01*
X-3407219Y-27880116D01*
X-3326872Y-27810310D01*
X-3259776Y-27766282D01*
X-3259667Y-27766228D01*
X-3131301Y-27724365D01*
X-3004219Y-27722911D01*
X-2883662Y-27760128D01*
X-2774873Y-27834278D01*
X-2683095Y-27943623D01*
X-2672292Y-27960990D01*
X-2603500Y-28075710D01*
X-2603500Y-32527712D01*
X-2502958Y-32540450D01*
X-2456541Y-32544466D01*
X-2374063Y-32549642D01*
X-2261769Y-32555665D01*
X-2125907Y-32562225D01*
X-1972723Y-32569009D01*
X-1808463Y-32575705D01*
X-1756833Y-32577693D01*
X-1624863Y-32581582D01*
X-1455048Y-32584793D01*
X-1251872Y-32587346D01*
X-1019818Y-32589262D01*
X-763368Y-32590561D01*
X-487006Y-32591263D01*
X-195215Y-32591389D01*
X107523Y-32590959D01*
X416723Y-32589993D01*
X727903Y-32588512D01*
X1036580Y-32586536D01*
X1338271Y-32584085D01*
X1628493Y-32581180D01*
X1902762Y-32577841D01*
X2156596Y-32574089D01*
X2385511Y-32569943D01*
X2585025Y-32565424D01*
X2750654Y-32560552D01*
X2846917Y-32556815D01*
X2988077Y-32550751D01*
X3096402Y-32547296D01*
X3181339Y-32547027D01*
X3252338Y-32550526D01*
X3318846Y-32558372D01*
X3390312Y-32571145D01*
X3476186Y-32589426D01*
X3513667Y-32597738D01*
X3653413Y-32627948D01*
X3814243Y-32661221D01*
X3990928Y-32696600D01*
X4178237Y-32733133D01*
X4370942Y-32769863D01*
X4563812Y-32805838D01*
X4751617Y-32840102D01*
X4929129Y-32871701D01*
X5091118Y-32899681D01*
X5232354Y-32923086D01*
X5347607Y-32940963D01*
X5431649Y-32952357D01*
X5478319Y-32956312D01*
X5473710Y-32943888D01*
X5441334Y-32909762D01*
X5386324Y-32858870D01*
X5313812Y-32796149D01*
X5298402Y-32783238D01*
X5227834Y-32721562D01*
X5132975Y-32634461D01*
X5018939Y-32526966D01*
X4890838Y-32404108D01*
X4753787Y-32270917D01*
X4612899Y-32132423D01*
X4473286Y-31993657D01*
X4340063Y-31859650D01*
X4218342Y-31735432D01*
X4113237Y-31626033D01*
X4029862Y-31536485D01*
X4019682Y-31525227D01*
X3884083Y-31374538D01*
X3450419Y-31338703D01*
X2891374Y-31284397D01*
X2363834Y-31216632D01*
X1868587Y-31135700D01*
X1406421Y-31041899D01*
X978123Y-30935521D01*
X584482Y-30816863D01*
X226286Y-30686219D01*
X-95679Y-30543885D01*
X-380623Y-30390154D01*
X-627759Y-30225322D01*
X-836299Y-30049683D01*
X-1005455Y-29863534D01*
X-1134439Y-29667168D01*
X-1162403Y-29612166D01*
X-1198591Y-29533146D01*
X-1220998Y-29470638D01*
X-1232893Y-29409130D01*
X-1237545Y-29333110D01*
X-1238250Y-29252333D01*
X-1232233Y-29113884D01*
X-1212320Y-29008455D01*
X-1175717Y-28928216D01*
X-1119631Y-28865333D01*
X-1092766Y-28844458D01*
X-1078053Y-28834386D01*
X-1062130Y-28825818D01*
X-1041564Y-28818588D01*
X-1012923Y-28812530D01*
X-972775Y-28807476D01*
X-917688Y-28803262D01*
X-844231Y-28799721D01*
X-748971Y-28796687D01*
X-628476Y-28793994D01*
X-479314Y-28791476D01*
X-298054Y-28788966D01*
X-81263Y-28786299D01*
X169333Y-28783368D01*
X408145Y-28780260D01*
X648335Y-28776509D01*
X883962Y-28772247D01*
X1109083Y-28767608D01*
X1317758Y-28762725D01*
X1504043Y-28757732D01*
X1661997Y-28752762D01*
X1785677Y-28747948D01*
X1820333Y-28746297D01*
X2044106Y-28734776D01*
X2243800Y-28724174D01*
X2425945Y-28714050D01*
X2597071Y-28703963D01*
X2763710Y-28693472D01*
X2932391Y-28682136D01*
X3109645Y-28669515D01*
X3302002Y-28655168D01*
X3515993Y-28638653D01*
X3758148Y-28619530D01*
X4034998Y-28597358D01*
X4078959Y-28593820D01*
X4386203Y-28581071D01*
X4665417Y-28595374D01*
X4921774Y-28637522D01*
X5160448Y-28708308D01*
X5346048Y-28788008D01*
X5442565Y-28838722D01*
X5530253Y-28893070D01*
X5614152Y-28955739D01*
X5699302Y-29031420D01*
X5790744Y-29124801D01*
X5893516Y-29240573D01*
X6012660Y-29383424D01*
X6093868Y-29483794D01*
X6424083Y-29895172D01*
X6804984Y-29976278D01*
X7257461Y-30078183D01*
X7674394Y-30183551D01*
X8054717Y-30292027D01*
X8397362Y-30403257D01*
X8701262Y-30516886D01*
X8965351Y-30632560D01*
X9188562Y-30749923D01*
X9256395Y-30791059D01*
X9339814Y-30843718D01*
X9326549Y-30561317D01*
X9323470Y-30486692D01*
X9319436Y-30374730D01*
X9314601Y-30230414D01*
X9309120Y-30058725D01*
X9303148Y-29864647D01*
X9296839Y-29653160D01*
X9290346Y-29429249D01*
X9283825Y-29197894D01*
X9280079Y-29061833D01*
X9246874Y-27844750D01*
X9151714Y-27703136D01*
X9063399Y-27588145D01*
X8946363Y-27460231D01*
X8808857Y-27327090D01*
X8659132Y-27196419D01*
X8505438Y-27075914D01*
X8399519Y-27001471D01*
X8046715Y-26788890D01*
X7660880Y-26598828D01*
X7241445Y-26431108D01*
X6787844Y-26285549D01*
X6299511Y-26161973D01*
X5775877Y-26060201D01*
X5216377Y-25980054D01*
X5134088Y-25970428D01*
X5010408Y-25955301D01*
X4900441Y-25939877D01*
X4811474Y-25925338D01*
X4750791Y-25912862D01*
X4726400Y-25904390D01*
X4703239Y-25865738D01*
X4704345Y-25805451D01*
X4730436Y-25719745D01*
X4782227Y-25604841D01*
X4783702Y-25601873D01*
X4917201Y-25375489D01*
X5089677Y-25152149D01*
X5297774Y-24935329D01*
X5538138Y-24728509D01*
X5807413Y-24535167D01*
X5821366Y-24526052D01*
X6137889Y-24340575D01*
X6489945Y-24171945D01*
X6873668Y-24021518D01*
X7285194Y-23890652D01*
X7720657Y-23780700D01*
X8176194Y-23693020D01*
X8212667Y-23687123D01*
X8640092Y-23629328D01*
X9095285Y-23586857D01*
X9568616Y-23559792D01*
X10050455Y-23548218D01*
X10531172Y-23552215D01*
G37*
X10531172Y-23552215D02*
X11001138Y-23571867D01*
X11450722Y-23607255D01*
X11853333Y-23655981D01*
X12274018Y-23729969D01*
X12668991Y-23825664D01*
X13036745Y-23942154D01*
X13375772Y-24078526D01*
X13684568Y-24233866D01*
X13961623Y-24407262D01*
X14205433Y-24597799D01*
X14414490Y-24804564D01*
X14587288Y-25026645D01*
X14722320Y-25263128D01*
X14794190Y-25438550D01*
X14851458Y-25603937D01*
X15023294Y-25440865D01*
X15372781Y-25135342D01*
X15736741Y-24868044D01*
X16113985Y-24639611D01*
X16503323Y-24450682D01*
X16903568Y-24301897D01*
X17313529Y-24193897D01*
X17356667Y-24185034D01*
X17550675Y-24151665D01*
X17761240Y-24124854D01*
X17975644Y-24105623D01*
X18181165Y-24094993D01*
X18365083Y-24093985D01*
X18446750Y-24097523D01*
X18650543Y-24112150D01*
X18879556Y-24130950D01*
X19123769Y-24152927D01*
X19373165Y-24177088D01*
X19617722Y-24202436D01*
X19847423Y-24227976D01*
X20052248Y-24252713D01*
X20181081Y-24269800D01*
X20665444Y-24353430D01*
X21119120Y-24465448D01*
X21543711Y-24606862D01*
X21940817Y-24778680D01*
X22312037Y-24981910D01*
X22658972Y-25217558D01*
X22983223Y-25486632D01*
X23286389Y-25790141D01*
X23570072Y-26129092D01*
X23835870Y-26504491D01*
X23907047Y-26615858D01*
X23979363Y-26735468D01*
X24052903Y-26864145D01*
X24124478Y-26995566D01*
X24190901Y-27123405D01*
X24248984Y-27241338D01*
X24295537Y-27343040D01*
X24327374Y-27422188D01*
X24341306Y-27472456D01*
X24341667Y-27478034D01*
X24338681Y-27504662D01*
X24325544Y-27528127D01*
X24295988Y-27553191D01*
X24243744Y-27584617D01*
X24162543Y-27627168D01*
X24111448Y-27652938D01*
X23994107Y-27710053D01*
X23863723Y-27770773D01*
X23739461Y-27826286D01*
X23672239Y-27854910D01*
X23486075Y-27940751D01*
X23338787Y-28028582D01*
X23226920Y-28120629D01*
X23181686Y-28170791D01*
X23076504Y-28326823D01*
X22978489Y-28523986D01*
X22887842Y-28761652D01*
X22804766Y-29039195D01*
X22729465Y-29355988D01*
X22662140Y-29711404D01*
X22640813Y-29842788D01*
X22620055Y-29965645D01*
X22599529Y-30068492D01*
X22580742Y-30144701D01*
X22565199Y-30187645D01*
X22561166Y-30193270D01*
X22528688Y-30209701D01*
X22465496Y-30231409D01*
X22382299Y-30254936D01*
X22330833Y-30267647D01*
X22182904Y-30305660D01*
X22013045Y-30354741D01*
X21835516Y-30410353D01*
X21664576Y-30467957D01*
X21514486Y-30523014D01*
X21459006Y-30545146D01*
X21355602Y-30582901D01*
X21239073Y-30618220D01*
X21145854Y-30640971D01*
X20888298Y-30706076D01*
X20616635Y-30797915D01*
X20344334Y-30911100D01*
X20084866Y-31040247D01*
X19942953Y-31121932D01*
X19696655Y-31282962D01*
X19471667Y-31454214D01*
X19261411Y-31641984D01*
X19059309Y-31852567D01*
X18858783Y-32092259D01*
X18678690Y-32331863D01*
X18635464Y-32391856D01*
X18297690Y-32367240D01*
X17880273Y-32355341D01*
X17476933Y-32382186D01*
X17083987Y-32448524D01*
X16697754Y-32555103D01*
X16314550Y-32702671D01*
X16065500Y-32820848D01*
X15696345Y-33031259D01*
X15346290Y-33277229D01*
X15012870Y-33560602D01*
X14809337Y-33760100D01*
X14721082Y-33850468D01*
X14656370Y-33914033D01*
X14609869Y-33954946D01*
X14576247Y-33977361D01*
X14550171Y-33985430D01*
X14526309Y-33983306D01*
X14523587Y-33982627D01*
X14131380Y-33901651D01*
X13728968Y-33860254D01*
X13314942Y-33858404D01*
X12887893Y-33896070D01*
X12612495Y-33939896D01*
X12492988Y-33963646D01*
X12366282Y-33991549D01*
X12239489Y-34021734D01*
X12119722Y-34052327D01*
X12014093Y-34081454D01*
X11929715Y-34107244D01*
X11873700Y-34127822D01*
X11853780Y-34139695D01*
X11830040Y-34153844D01*
X11776162Y-34177480D01*
X11702059Y-34206374D01*
X11669753Y-34218178D01*
X11496757Y-34280227D01*
X11645325Y-34502072D01*
X11980703Y-35035439D01*
X12282594Y-35583053D01*
X12549664Y-36141573D01*
X12780580Y-36707662D01*
X12974005Y-37277979D01*
X13128607Y-37849184D01*
X13243052Y-38417937D01*
X13264599Y-38555083D01*
X13277363Y-38668031D01*
X13287743Y-38813662D01*
X13295692Y-38983966D01*
X13301160Y-39170935D01*
X13304099Y-39366560D01*
X13304460Y-39562830D01*
X13302195Y-39751739D01*
X13297254Y-39925275D01*
X13289590Y-40075430D01*
X13279152Y-40194196D01*
X13274777Y-40227250D01*
X13254246Y-40352444D01*
X13228686Y-40489504D01*
X13199679Y-40631706D01*
X13168806Y-40772324D01*
X13137648Y-40904637D01*
X13107786Y-41021919D01*
X13080800Y-41117448D01*
X13058273Y-41184499D01*
X13042315Y-41215830D01*
X13010200Y-41227895D01*
X12939569Y-41239988D01*
X12834237Y-41251887D01*
X12698022Y-41263367D01*
X12534739Y-41274207D01*
X12348204Y-41284182D01*
X12142234Y-41293070D01*
X11920644Y-41300649D01*
X11687251Y-41306694D01*
X11445872Y-41310983D01*
X11405363Y-41311508D01*
X10523477Y-41322337D01*
X10554265Y-41409600D01*
X10580633Y-41473596D01*
X10619576Y-41555888D01*
X10660513Y-41634639D01*
X10809407Y-41862848D01*
X10992267Y-42066797D01*
X11207814Y-42245675D01*
X11454768Y-42398671D01*
X11731850Y-42524976D01*
X12037782Y-42623778D01*
X12319000Y-42685434D01*
X12467051Y-42705004D01*
X12647622Y-42718366D01*
X12851362Y-42725581D01*
X13068926Y-42726708D01*
X13290963Y-42721807D01*
X13508127Y-42710939D01*
X13711070Y-42694164D01*
X13864167Y-42675487D01*
X14265937Y-42606946D01*
X14692792Y-42515043D01*
X15136146Y-42402077D01*
X15587413Y-42270345D01*
X16038007Y-42122144D01*
X16339777Y-42013083D01*
X16431016Y-41980466D01*
X16508767Y-41955685D01*
X16563935Y-41941450D01*
X16586245Y-41939650D01*
X16614579Y-41956561D01*
X16665744Y-41992098D01*
X16729159Y-42038889D01*
X16735311Y-42043556D01*
X16984482Y-42206575D01*
X17257682Y-42335352D01*
X17554022Y-42429868D01*
X17872614Y-42490104D01*
X18212567Y-42516040D01*
X18572994Y-42507658D01*
X18953004Y-42464937D01*
X19351708Y-42387859D01*
X19768218Y-42276404D01*
X20201644Y-42130554D01*
X20231635Y-42119414D01*
X20674833Y-41940224D01*
X21135121Y-41728122D01*
X21607182Y-41486113D01*
X22085703Y-41217205D01*
X22565367Y-40924403D01*
X23040861Y-40610714D01*
X23506869Y-40279144D01*
X23576257Y-40227579D01*
X23675019Y-40155110D01*
X23763784Y-40092510D01*
X23836390Y-40043922D01*
X23886677Y-40013494D01*
X23907061Y-40005000D01*
X23937054Y-40015448D01*
X23994910Y-40043958D01*
X24072520Y-40086272D01*
X24161773Y-40138133D01*
X24169007Y-40142467D01*
X24493151Y-40315675D01*
X24818091Y-40446560D01*
X25143647Y-40535121D01*
X25469642Y-40581360D01*
X25795896Y-40585275D01*
X26122232Y-40546866D01*
X26448470Y-40466132D01*
X26774433Y-40343073D01*
X27099941Y-40177690D01*
X27149121Y-40148992D01*
X27476534Y-39933408D01*
X27801188Y-39677580D01*
X28121284Y-39383588D01*
X28435022Y-39053510D01*
X28740603Y-38689426D01*
X29036227Y-38293413D01*
X29320094Y-37867552D01*
X29590406Y-37413920D01*
X29717711Y-37181484D01*
X29769227Y-37088165D01*
X29816449Y-37008857D01*
X29854711Y-36950970D01*
X29879347Y-36921917D01*
X29882215Y-36920224D01*
X29916369Y-36923410D01*
X29973587Y-36943902D01*
X30033016Y-36972849D01*
X30221491Y-37055853D01*
X30407439Y-37098431D01*
X30588479Y-37100170D01*
X30679701Y-37084842D01*
X30749086Y-37076146D01*
X30797949Y-37084252D01*
X30798770Y-37084679D01*
X30822901Y-37109055D01*
X30866727Y-37165122D01*
X30927434Y-37248715D01*
X31002210Y-37355671D01*
X31088242Y-37481825D01*
X31182718Y-37623013D01*
X31282825Y-37775072D01*
X31385750Y-37933837D01*
X31488681Y-38095144D01*
X31584666Y-38248166D01*
X31827028Y-38642932D01*
X32087273Y-39075998D01*
X32365368Y-39547309D01*
X32661283Y-40056809D01*
X32974985Y-40604443D01*
X33306444Y-41190155D01*
X33655626Y-41813888D01*
X34022501Y-42475589D01*
X34407036Y-43175200D01*
X34675471Y-43666833D01*
X34881959Y-44046344D01*
X35068556Y-44390122D01*
X35235930Y-44699438D01*
X35384750Y-44975563D01*
X35515685Y-45219770D01*
X35629402Y-45433330D01*
X35726570Y-45617516D01*
X35807858Y-45773597D01*
X35873934Y-45902848D01*
X35925467Y-46006538D01*
X35963124Y-46085941D01*
X35987575Y-46142327D01*
X35999488Y-46176969D01*
X36000834Y-46188366D01*
X35980712Y-46224922D01*
X35927725Y-46271118D01*
X35838632Y-46329764D01*
X35835167Y-46331867D01*
X35676783Y-46440499D01*
X35556601Y-46552474D01*
X35470496Y-46671818D01*
X35453057Y-46704802D01*
X35425553Y-46769101D01*
X35409679Y-46833105D01*
X35402634Y-46912293D01*
X35401458Y-46990000D01*
X35403387Y-47084819D01*
X35411669Y-47155994D01*
X35430440Y-47221688D01*
X35463834Y-47300066D01*
X35479731Y-47333834D01*
X35530273Y-47435013D01*
X35581668Y-47525436D01*
X35639955Y-47613804D01*
X35711175Y-47708819D01*
X35801366Y-47819181D01*
X35882979Y-47914812D01*
X36204045Y-48312793D01*
X36485850Y-48717187D01*
X36727794Y-49126865D01*
X36929277Y-49540701D01*
X37089699Y-49957569D01*
X37208459Y-50376342D01*
X37219040Y-50422868D01*
X37261959Y-50632084D01*
X37291607Y-50818604D01*
X37309830Y-50999274D01*
X37318479Y-51190940D01*
X37319823Y-51341505D01*
X37305506Y-51680432D01*
X37262719Y-52001826D01*
X37189370Y-52313508D01*
X37083370Y-52623295D01*
X36942627Y-52939006D01*
X36840016Y-53135658D01*
X36756436Y-53282687D01*
X36667299Y-53429883D01*
X36575886Y-53572671D01*
X36485481Y-53706478D01*
X36399367Y-53826730D01*
X36320828Y-53928854D01*
X36253146Y-54008277D01*
X36199605Y-54060424D01*
X36163489Y-54080722D01*
X36161504Y-54080833D01*
X36135937Y-54066405D01*
X36087113Y-54026651D01*
X36021003Y-53966867D01*
X35943583Y-53892347D01*
X35902677Y-53851398D01*
X35810282Y-53759545D01*
X35715150Y-53668116D01*
X35627120Y-53586373D01*
X35556032Y-53523578D01*
X35541819Y-53511727D01*
X35414010Y-53412223D01*
X35276036Y-53313791D01*
X35133848Y-53219882D01*
X34993397Y-53133944D01*
X34860633Y-53059431D01*
X34741508Y-52999791D01*
X34641972Y-52958475D01*
X34567977Y-52938934D01*
X34552064Y-52937833D01*
X34452310Y-52955964D01*
X34340705Y-53006678D01*
X34223847Y-53084456D01*
X34108335Y-53183780D01*
X34000767Y-53299130D01*
X33907741Y-53424988D01*
X33850749Y-53524427D01*
X33793184Y-53649639D01*
X33750163Y-53769122D01*
X33719901Y-53892339D01*
X33700612Y-54028749D01*
X33690511Y-54187814D01*
X33687813Y-54378995D01*
X33687835Y-54387750D01*
X33688394Y-54494728D01*
X33689998Y-54584015D01*
X33693605Y-54663039D01*
X33700172Y-54739231D01*
X33710656Y-54820023D01*
X33726017Y-54912843D01*
X33747211Y-55025122D01*
X33775197Y-55164292D01*
X33809254Y-55329666D01*
X33872494Y-55640890D01*
X33925936Y-55916813D01*
X33970311Y-56163135D01*
X34006349Y-56385560D01*
X34034780Y-56589790D01*
X34056333Y-56781525D01*
X34071739Y-56966468D01*
X34081729Y-57150321D01*
X34087031Y-57338786D01*
X34088400Y-57509833D01*
X34083945Y-57793092D01*
X34069643Y-58041515D01*
X34044330Y-58261700D01*
X34006842Y-58460245D01*
X33956014Y-58643746D01*
X33890683Y-58818803D01*
X33836264Y-58938683D01*
X33753533Y-59093310D01*
X33661260Y-59231601D01*
X33551198Y-59364136D01*
X33415099Y-59501493D01*
X33352426Y-59559339D01*
X33060165Y-59806546D01*
X32773523Y-60013673D01*
X32489840Y-60182156D01*
X32206454Y-60313430D01*
X31920704Y-60408930D01*
X31678436Y-60462294D01*
X31535871Y-60482538D01*
X31398990Y-60492412D01*
X31260709Y-60491182D01*
X31113947Y-60478115D01*
X30951623Y-60452478D01*
X30766653Y-60413536D01*
X30551957Y-60360556D01*
X30458833Y-60335983D01*
X30259428Y-60284006D01*
X30092200Y-60243950D01*
X29949132Y-60214458D01*
X29822205Y-60194174D01*
X29703398Y-60181740D01*
X29584693Y-60175801D01*
X29505842Y-60174783D01*
X29210231Y-60192507D01*
X28935198Y-60246134D01*
X28681767Y-60335209D01*
X28450958Y-60459280D01*
X28243795Y-60617893D01*
X28061300Y-60810593D01*
X28054691Y-60818800D01*
X27981394Y-60913712D01*
X27907254Y-61017087D01*
X27828574Y-61134630D01*
X27741655Y-61272049D01*
X27642800Y-61435052D01*
X27528311Y-61629345D01*
X27517489Y-61647916D01*
X27368920Y-61895396D01*
X27231482Y-62106987D01*
X27101696Y-62286533D01*
X26976081Y-62437877D01*
X26851160Y-62564863D01*
X26723453Y-62671336D01*
X26589480Y-62761138D01*
X26445762Y-62838113D01*
X26435860Y-62842830D01*
X26351368Y-62880345D01*
X26287913Y-62899035D01*
X26229473Y-62900540D01*
X26160027Y-62886498D01*
X26119667Y-62875180D01*
X26067552Y-62860319D01*
X25983630Y-62836759D01*
X25876916Y-62807015D01*
X25756424Y-62773600D01*
X25664583Y-62748235D01*
X25168931Y-62603461D01*
X24693608Y-62448344D01*
X24242803Y-62284510D01*
X23820704Y-62113588D01*
X23431499Y-61937205D01*
X23079376Y-61756989D01*
X22999334Y-61712491D01*
X22806975Y-61599754D01*
X22623669Y-61483451D01*
X22440334Y-61357274D01*
X22247890Y-61214911D01*
X22037256Y-61050054D01*
X21981583Y-61005306D01*
X21807378Y-60869204D01*
X21654481Y-60760434D01*
X21515870Y-60674874D01*
X21384518Y-60608403D01*
X21253403Y-60556898D01*
X21176052Y-60532649D01*
X21059264Y-60507998D01*
X20914492Y-60491084D01*
X20753848Y-60482059D01*
X20589441Y-60481075D01*
X20433383Y-60488284D01*
X20297783Y-60503838D01*
X20218368Y-60520633D01*
X19950706Y-60615420D01*
X19685620Y-60750060D01*
X19426707Y-60922085D01*
X19177563Y-61129024D01*
X18941788Y-61368411D01*
X18880667Y-61438547D01*
X18809777Y-61521223D01*
X18741650Y-61599264D01*
X18685086Y-61662661D01*
X18654721Y-61695441D01*
X18587526Y-61765373D01*
X18485388Y-61726560D01*
X18324198Y-61648102D01*
X18159058Y-61536098D01*
X17998672Y-61397401D01*
X17851739Y-61238866D01*
X17826460Y-61207573D01*
X17743244Y-61095894D01*
X17669615Y-60985158D01*
X17609763Y-60882686D01*
X17567879Y-60795802D01*
X17548151Y-60731827D01*
X17547167Y-60719452D01*
X17550592Y-60688990D01*
X17560461Y-60620511D01*
X17576159Y-60517738D01*
X17597073Y-60384393D01*
X17622589Y-60224201D01*
X17652094Y-60040884D01*
X17684974Y-59838166D01*
X17720616Y-59619770D01*
X17758406Y-59389420D01*
X17797731Y-59150839D01*
X17837977Y-58907749D01*
X17878531Y-58663876D01*
X17918780Y-58422941D01*
X17958109Y-58188668D01*
X17995905Y-57964781D01*
X18031556Y-57755003D01*
X18064446Y-57563057D01*
X18093964Y-57392666D01*
X18115856Y-57268057D01*
X18145542Y-57104186D01*
X18170557Y-56977719D01*
X18192666Y-56884216D01*
X18213637Y-56819239D01*
X18235232Y-56778350D01*
X18259219Y-56757110D01*
X18287363Y-56751080D01*
X18319750Y-56755442D01*
X18343766Y-56752159D01*
X18376396Y-56730014D01*
X18422040Y-56684811D01*
X18485100Y-56612355D01*
X18540171Y-56545383D01*
X18682296Y-56373262D01*
X18801409Y-56235690D01*
X18897381Y-56132803D01*
X18970082Y-56064736D01*
X19019382Y-56031626D01*
X19033730Y-56028166D01*
X19076038Y-56037207D01*
X19139682Y-56060562D01*
X19191584Y-56083968D01*
X19303969Y-56123927D01*
X19437318Y-56148745D01*
X19572180Y-56155882D01*
X19671215Y-56146580D01*
X19745866Y-56132575D01*
X19661483Y-55956717D01*
X19598154Y-55813641D01*
X19555460Y-55692484D01*
X19534579Y-55597348D01*
X19536687Y-55532338D01*
X19538332Y-55527313D01*
X19565051Y-55478987D01*
X19616366Y-55406573D01*
X19687067Y-55316044D01*
X19771947Y-55213375D01*
X19865796Y-55104540D01*
X19963404Y-54995513D01*
X20059564Y-54892270D01*
X20149065Y-54800784D01*
X20226700Y-54727029D01*
X20264316Y-54694666D01*
X20322381Y-54643992D01*
X20364612Y-54600562D01*
X20382372Y-54573318D01*
X20382472Y-54572354D01*
X20372707Y-54535144D01*
X20344738Y-54470539D01*
X20302915Y-54386973D01*
X20251585Y-54292878D01*
X20195097Y-54196685D01*
X20159155Y-54139324D01*
X20104330Y-54060888D01*
X20031836Y-53966190D01*
X19953035Y-53869779D01*
X19907860Y-53817616D01*
X19844151Y-53743667D01*
X19792620Y-53679391D01*
X19759012Y-53632256D01*
X19748824Y-53610958D01*
X19755079Y-53579216D01*
X19777221Y-53550689D01*
X19821539Y-53521011D01*
X19894325Y-53485815D01*
X19983038Y-53448394D01*
X20140023Y-53389509D01*
X20296425Y-53340357D01*
X20442333Y-53303527D01*
X20567837Y-53281604D01*
X20641530Y-53276500D01*
X20743333Y-53276500D01*
X20742966Y-53123041D01*
X20737786Y-53016727D01*
X20724762Y-52900061D01*
X20711260Y-52821416D01*
X20677697Y-52702926D01*
X20626591Y-52570356D01*
X20564724Y-52438471D01*
X20498881Y-52322036D01*
X20449817Y-52252297D01*
X20397014Y-52174771D01*
X20380588Y-52116415D01*
X20401540Y-52075553D01*
X20460874Y-52050509D01*
X20559591Y-52039606D01*
X20577255Y-52039099D01*
X20712633Y-52024437D01*
X20834491Y-51983438D01*
X20953348Y-51911463D01*
X21051785Y-51829884D01*
X21106045Y-51778875D01*
X21131992Y-51748258D01*
X21133577Y-51731013D01*
X21114748Y-51720124D01*
X21113750Y-51719765D01*
X20978185Y-51663391D01*
X20843184Y-51592793D01*
X20717134Y-51513607D01*
X20608424Y-51431469D01*
X20525443Y-51352012D01*
X20485050Y-51297416D01*
X20453041Y-51209522D01*
X20437401Y-51092580D01*
X20437982Y-50956521D01*
X20454635Y-50811275D01*
X20487213Y-50666774D01*
X20494869Y-50641250D01*
X20518356Y-50563302D01*
X20534986Y-50502581D01*
X20542140Y-50468880D01*
X20541909Y-50465266D01*
X20517581Y-50467684D01*
X20464455Y-50490143D01*
X20388779Y-50528944D01*
X20296805Y-50580386D01*
X20194781Y-50640770D01*
X20088959Y-50706395D01*
X19985589Y-50773563D01*
X19890921Y-50838572D01*
X19811204Y-50897723D01*
X19810683Y-50898132D01*
X19724231Y-50958525D01*
X19658520Y-50986174D01*
X19608972Y-50982263D01*
X19578630Y-50958103D01*
X19567982Y-50936417D01*
X19563737Y-50899811D01*
X19566090Y-50841131D01*
X19575236Y-50753222D01*
X19586622Y-50664163D01*
X19600002Y-50561610D01*
X19611008Y-50473031D01*
X19618540Y-50407588D01*
X19621497Y-50374444D01*
X19621505Y-50373768D01*
X19612337Y-50360461D01*
X19580776Y-50351744D01*
X19520736Y-50346845D01*
X19426135Y-50344994D01*
X19393963Y-50344916D01*
X19287186Y-50343772D01*
X19210900Y-50339089D01*
X19153293Y-50328992D01*
X19102555Y-50311608D01*
X19060583Y-50292000D01*
X18954750Y-50239083D01*
X18928854Y-50028943D01*
X18908579Y-49898353D01*
X18880926Y-49791138D01*
X18840727Y-49688399D01*
X18828499Y-49662014D01*
X18754039Y-49505224D01*
X18644035Y-49601453D01*
X18473505Y-49728067D01*
X18291176Y-49817994D01*
X18091615Y-49873157D01*
X17869391Y-49895480D01*
X17811750Y-49896164D01*
X17581544Y-49878474D01*
X17339181Y-49829273D01*
X17096369Y-49752013D01*
X16864820Y-49650145D01*
X16737542Y-49579483D01*
X16615833Y-49505768D01*
X16615833Y-49373488D01*
X16632302Y-49211095D01*
X16683032Y-49070512D01*
X16766042Y-48950619D01*
X16807601Y-48899115D01*
X16831448Y-48860867D01*
X16833244Y-48845891D01*
X16802107Y-48835903D01*
X16738543Y-48821316D01*
X16651974Y-48803909D01*
X16551824Y-48785462D01*
X16447515Y-48767753D01*
X16348470Y-48752561D01*
X16312677Y-48747619D01*
X16190395Y-48736189D01*
X16037153Y-48729167D01*
X15864084Y-48726448D01*
X15682319Y-48727928D01*
X15502992Y-48733503D01*
X15337233Y-48743069D01*
X15196177Y-48756520D01*
X15182876Y-48758203D01*
X14793210Y-48824322D01*
X14396757Y-48920625D01*
X14005794Y-49043372D01*
X13632596Y-49188826D01*
X13375601Y-49308622D01*
X13294786Y-49347394D01*
X13240428Y-49367423D01*
X13202487Y-49371413D01*
X13173178Y-49363118D01*
X13149624Y-49350151D01*
X13135766Y-49331475D01*
X13129908Y-49297829D01*
X13130352Y-49239951D01*
X13135021Y-49154833D01*
X13138355Y-49055080D01*
X13137039Y-48957475D01*
X13131415Y-48879949D01*
X13129537Y-48866776D01*
X13112750Y-48764470D01*
X12911799Y-48991149D01*
X12813918Y-49097940D01*
X12700375Y-49216186D01*
X12585979Y-49330735D01*
X12494935Y-49417767D01*
X12392712Y-49510484D01*
X12314685Y-49573589D01*
X12255121Y-49607409D01*
X12208288Y-49612273D01*
X12168454Y-49588507D01*
X12129885Y-49536440D01*
X12086850Y-49456400D01*
X12079418Y-49441525D01*
X12021711Y-49302625D01*
X11978103Y-49151673D01*
X11951525Y-49002487D01*
X11944906Y-48868885D01*
X11948418Y-48823575D01*
X11961323Y-48720401D01*
X11876835Y-48787317D01*
X11732052Y-48918593D01*
X11583326Y-49084038D01*
X11435659Y-49276441D01*
X11294049Y-49488594D01*
X11163498Y-49713286D01*
X11049006Y-49943308D01*
X11005002Y-50044356D01*
X10958070Y-50145903D01*
X10916085Y-50209436D01*
X10875559Y-50238428D01*
X10833006Y-50236349D01*
X10818657Y-50229832D01*
X10798928Y-50218296D01*
X10783707Y-50203592D01*
X10771040Y-50179240D01*
X10758973Y-50138758D01*
X10745551Y-50075663D01*
X10728821Y-49983475D01*
X10708093Y-49863102D01*
X10689251Y-49758297D01*
X10671693Y-49670281D01*
X10657052Y-49606554D01*
X10646958Y-49574617D01*
X10644882Y-49572333D01*
X10626018Y-49588206D01*
X10593201Y-49628567D01*
X10573449Y-49655990D01*
X10530701Y-49710531D01*
X10473913Y-49773606D01*
X10411235Y-49837307D01*
X10350813Y-49893726D01*
X10300795Y-49934954D01*
X10269327Y-49953084D01*
X10267100Y-49953333D01*
X10229592Y-49936735D01*
X10192655Y-49898076D01*
X10169691Y-49854060D01*
X10168589Y-49830542D01*
X10180867Y-49779694D01*
X10198612Y-49692604D01*
X10220873Y-49574874D01*
X10246701Y-49432106D01*
X10275148Y-49269902D01*
X10305264Y-49093865D01*
X10336099Y-48909598D01*
X10366704Y-48722701D01*
X10396131Y-48538778D01*
X10423430Y-48363430D01*
X10447652Y-48202261D01*
X10465184Y-48080083D01*
X10487700Y-47911990D01*
X10511000Y-47725993D01*
X10534680Y-47526312D01*
X10558339Y-47317173D01*
X10581577Y-47102796D01*
X10603990Y-46887406D01*
X10625179Y-46675225D01*
X10644740Y-46470477D01*
X10662273Y-46277383D01*
X10677376Y-46100168D01*
X10689647Y-45943054D01*
X10698685Y-45810263D01*
X10704087Y-45706019D01*
X10705454Y-45634545D01*
X10702383Y-45600064D01*
X10701221Y-45597998D01*
X10691098Y-45604268D01*
X10689167Y-45621675D01*
X10682422Y-45653755D01*
X10663362Y-45720504D01*
X10633747Y-45816664D01*
X10595336Y-45936979D01*
X10549889Y-46076194D01*
X10499166Y-46229050D01*
X10444928Y-46390292D01*
X10388934Y-46554664D01*
X10332944Y-46716907D01*
X10278718Y-46871767D01*
X10228016Y-47013987D01*
X10182598Y-47138310D01*
X10170797Y-47169916D01*
X10095352Y-47368211D01*
X10012626Y-47581008D01*
X9924083Y-47804858D01*
X9831188Y-48036315D01*
X9735405Y-48271931D01*
X9638196Y-48508259D01*
X9541028Y-48741851D01*
X9445363Y-48969261D01*
X9352665Y-49187040D01*
X9264399Y-49391742D01*
X9182028Y-49579918D01*
X9107017Y-49748123D01*
X9040830Y-49892907D01*
X8984930Y-50010825D01*
X8940782Y-50098429D01*
X8909849Y-50152270D01*
X8897904Y-50167223D01*
X8870888Y-50178818D01*
X8827337Y-50176270D01*
X8757147Y-50158648D01*
X8735871Y-50152273D01*
X8623918Y-50128861D01*
X8482086Y-50115509D01*
X8321587Y-50112097D01*
X8153634Y-50118503D01*
X7989438Y-50134607D01*
X7840212Y-50160289D01*
X7832658Y-50161978D01*
X7722687Y-50186188D01*
X7646424Y-50200256D01*
X7596494Y-50204254D01*
X7565520Y-50198251D01*
X7546128Y-50182321D01*
X7535251Y-50164845D01*
X7527463Y-50136163D01*
X7531532Y-50093884D01*
X7549183Y-50030004D01*
X7582142Y-49936515D01*
X7587643Y-49921764D01*
X7624481Y-49815602D01*
X7659422Y-49701069D01*
X7689629Y-49589015D01*
X7712262Y-49490290D01*
X7724485Y-49415741D01*
X7725833Y-49393493D01*
X7714209Y-49382294D01*
X7675924Y-49388832D01*
X7605860Y-49414072D01*
X7596424Y-49417858D01*
X7506632Y-49447233D01*
X7406460Y-49469171D01*
X7306677Y-49482555D01*
X7218051Y-49486269D01*
X7151349Y-49479196D01*
X7123095Y-49466924D01*
X7100291Y-49423392D01*
X7091618Y-49347360D01*
X7096918Y-49246180D01*
X7116033Y-49127199D01*
X7131837Y-49058949D01*
X7162869Y-48960777D01*
X7212053Y-48834315D01*
X7275919Y-48687670D01*
X7350994Y-48528947D01*
X7403697Y-48424041D01*
X7390429Y-48414222D01*
X7343680Y-48409166D01*
X7272002Y-48408592D01*
X7183948Y-48412220D01*
X7088070Y-48419770D01*
X6992918Y-48430961D01*
X6940147Y-48439234D01*
X6730263Y-48486809D01*
X6526046Y-48553208D01*
X6355995Y-48627366D01*
X6287603Y-48658201D01*
X6228030Y-48678528D01*
X6200213Y-48683333D01*
X6162787Y-48669615D01*
X6107091Y-48633529D01*
X6044751Y-48582681D01*
X6040710Y-48579013D01*
X5917489Y-48480465D01*
X5785831Y-48405052D01*
X5639078Y-48350752D01*
X5470574Y-48315545D01*
X5273662Y-48297411D01*
X5101167Y-48293803D01*
X4907715Y-48297845D01*
X4734949Y-48310363D01*
X4568651Y-48333415D01*
X4394606Y-48369059D01*
X4198595Y-48419355D01*
X4159969Y-48430099D01*
X4050380Y-48459754D01*
X3972989Y-48474786D01*
X3919387Y-48472538D01*
X3881164Y-48450353D01*
X3849911Y-48405573D01*
X3817219Y-48335540D01*
X3810344Y-48319607D01*
X3755302Y-48152899D01*
X3720443Y-47961362D01*
X3707811Y-47758419D01*
X3710180Y-47662041D01*
X3714170Y-47560394D01*
X3712732Y-47495642D01*
X3705512Y-47462653D01*
X3695897Y-47455666D01*
X3667781Y-47466679D01*
X3614189Y-47496126D01*
X3544638Y-47538620D01*
X3511478Y-47560034D01*
X3390684Y-47649852D01*
X3266841Y-47760180D01*
X3150320Y-47880419D01*
X3051493Y-47999970D01*
X2988180Y-48094818D01*
X2938567Y-48177818D01*
X2899605Y-48228155D01*
X2862716Y-48250881D01*
X2819327Y-48251050D01*
X2760861Y-48233713D01*
X2755622Y-48231846D01*
X2604322Y-48199995D01*
X2440862Y-48208149D01*
X2265978Y-48255995D01*
X2080407Y-48343218D01*
X1884888Y-48469502D01*
X1680156Y-48634534D01*
X1566225Y-48739465D01*
X1467740Y-48830474D01*
X1390012Y-48894829D01*
X1335632Y-48930495D01*
X1313847Y-48937333D01*
X1270837Y-48917064D01*
X1231107Y-48859753D01*
X1195898Y-48770642D01*
X1166455Y-48654972D01*
X1144017Y-48517985D01*
X1129829Y-48364923D01*
X1125131Y-48201027D01*
X1125905Y-48144243D01*
X1127131Y-48043898D01*
X1125789Y-47960953D01*
X1122182Y-47903402D01*
X1116613Y-47879238D01*
X1115859Y-47878961D01*
X1089748Y-47886143D01*
X1034478Y-47905258D01*
X960270Y-47932713D01*
X930586Y-47944063D01*
X733262Y-48037141D01*
X530006Y-48164381D01*
X328253Y-48319778D01*
X135441Y-48497325D01*
X-40994Y-48691019D01*
X-122552Y-48794458D01*
X-198316Y-48890265D01*
X-258778Y-48951312D01*
X-309180Y-48979852D01*
X-354763Y-48978139D01*
X-400769Y-48948426D01*
X-424936Y-48924458D01*
X-467873Y-48884550D01*
X-532255Y-48831813D01*
X-604565Y-48777291D01*
X-608542Y-48774433D01*
X-682243Y-48716242D01*
X-727876Y-48668440D01*
X-740833Y-48639834D01*
X-737548Y-48605788D01*
X-728494Y-48538300D01*
X-714872Y-48445683D01*
X-697885Y-48336247D01*
X-688302Y-48276567D01*
X-660777Y-48097571D01*
X-629633Y-47877460D01*
X-595002Y-47617288D01*
X-557016Y-47318107D01*
X-515806Y-46980970D01*
X-471503Y-46606929D01*
X-424239Y-46197036D01*
X-382349Y-45825833D01*
X-361376Y-45637701D01*
X-340978Y-45453404D01*
X-320746Y-45269075D01*
X-300268Y-45080851D01*
X-279136Y-44884866D01*
X-256938Y-44677256D01*
X-233264Y-44454155D01*
X-207704Y-44211699D01*
X-179847Y-43946023D01*
X-149284Y-43653262D01*
X-115604Y-43329550D01*
X-78397Y-42971024D01*
X-42043Y-42620095D01*
X-22992Y-42450435D01*
X-5319Y-42322888D01*
X11009Y-42237260D01*
X26022Y-42193355D01*
X29114Y-42189314D01*
X44820Y-42179222D01*
X71720Y-42173066D01*
X115625Y-42170896D01*
X182342Y-42172761D01*
X277680Y-42178711D01*
X407446Y-42188794D01*
X457996Y-42192970D01*
X630844Y-42206525D01*
X814456Y-42219183D01*
X1011484Y-42231036D01*
X1224581Y-42242176D01*
X1456400Y-42252696D01*
X1709592Y-42262686D01*
X1986810Y-42272239D01*
X2290708Y-42281448D01*
X2623936Y-42290403D01*
X2989148Y-42299198D01*
X3388995Y-42307924D01*
X3826132Y-42316673D01*
X4254500Y-42324658D01*
X4783833Y-42329534D01*
X5288569Y-42324700D01*
X5766414Y-42310318D01*
X6215074Y-42286548D01*
X6632254Y-42253552D01*
X7015660Y-42211491D01*
X7362998Y-42160525D01*
X7671973Y-42100816D01*
X7771345Y-42077707D01*
X8043902Y-42001187D01*
X8281478Y-41913567D01*
X8482754Y-41815603D01*
X8646408Y-41708049D01*
X8771119Y-41591658D01*
X8855566Y-41467185D01*
X8861270Y-41455345D01*
X8891364Y-41376513D01*
X8907706Y-41303852D01*
X8909394Y-41246867D01*
X8895527Y-41215065D01*
X8884372Y-41211500D01*
X8842963Y-41209457D01*
X8765470Y-41203705D01*
X8657925Y-41194805D01*
X8526361Y-41183319D01*
X8376810Y-41169808D01*
X8215306Y-41154834D01*
X8047882Y-41138959D01*
X7880569Y-41122744D01*
X7719401Y-41106751D01*
X7570411Y-41091543D01*
X7439630Y-41077680D01*
X7397750Y-41073080D01*
X7129129Y-41042587D01*
X6821718Y-41006522D01*
X6478641Y-40965270D01*
X6103019Y-40919218D01*
X5697975Y-40868753D01*
X5266632Y-40814262D01*
X4812111Y-40756132D01*
X4337535Y-40694749D01*
X4226173Y-40680250D01*
X3086596Y-40531706D01*
X2924635Y-40403002D01*
X2790931Y-40300036D01*
X2649087Y-40197609D01*
X2496250Y-40094114D01*
X2329564Y-39987940D01*
X2146176Y-39877478D01*
X1943231Y-39761121D01*
X1717874Y-39637257D01*
X1467252Y-39504280D01*
X1188509Y-39360579D01*
X878791Y-39204545D01*
X535244Y-39034570D01*
X248071Y-38894250D01*
X-52670Y-38747011D01*
X-316866Y-38615371D01*
X-546712Y-38497864D01*
X-744407Y-38393023D01*
X-912145Y-38299381D01*
X-1052124Y-38215474D01*
X-1166539Y-38139833D01*
X-1257587Y-38070993D01*
X-1327464Y-38007487D01*
X-1378367Y-37947850D01*
X-1412491Y-37890615D01*
X-1432034Y-37834315D01*
X-1439191Y-37777484D01*
X-1439333Y-37767689D01*
X-1431757Y-37686338D01*
X-1405284Y-37614668D01*
X-1354303Y-37542636D01*
X-1273201Y-37460195D01*
X-1261478Y-37449400D01*
X-1136525Y-37352306D01*
X-971439Y-37252881D01*
X-765750Y-37150900D01*
X-518991Y-37046140D01*
X-230695Y-36938376D01*
X-97108Y-36892165D01*
X260868Y-36770927D01*
X135726Y-36745753D01*
X-225320Y-36660664D01*
X-580825Y-36552783D01*
X-922880Y-36425213D01*
X-1243573Y-36281060D01*
X-1534995Y-36123429D01*
X-1676652Y-36034301D01*
X-1808538Y-35939195D01*
X-1947690Y-35826226D01*
X-2084546Y-35704141D01*
X-2209542Y-35581684D01*
X-2313114Y-35467602D01*
X-2357306Y-35411833D01*
X-2414359Y-35327872D01*
X-2473810Y-35229730D01*
X-2512838Y-35157833D01*
X-2582203Y-35020250D01*
X-2582268Y-36106201D01*
X-2582333Y-37192153D01*
X-2517491Y-37344451D01*
X-2441605Y-37544253D01*
X-2377108Y-37757004D01*
X-2325987Y-37972908D01*
X-2290227Y-38182169D01*
X-2271816Y-38374991D01*
X-2272738Y-38541576D01*
X-2273319Y-38548933D01*
X-2303560Y-38747358D01*
X-2358532Y-38931764D01*
X-2434976Y-39093354D01*
X-2518773Y-39211250D01*
X-2533701Y-39234950D01*
X-2544949Y-39271536D01*
X-2553413Y-39327749D01*
X-2559988Y-39410329D01*
X-2565571Y-39526015D01*
X-2567557Y-39578385D01*
X-2572328Y-39691331D01*
X-2577746Y-39788737D01*
X-2583287Y-39863026D01*
X-2588426Y-39906624D01*
X-2590827Y-39914715D01*
X-2618184Y-39916914D01*
X-2676997Y-39907505D01*
X-2758765Y-39888860D01*
X-2854987Y-39863354D01*
X-2957161Y-39833359D01*
X-3056785Y-39801249D01*
X-3145359Y-39769398D01*
X-3212174Y-39741234D01*
X-3303421Y-39691521D01*
X-3394151Y-39631665D01*
X-3465413Y-39574222D01*
X-3468101Y-39571662D01*
X-3534321Y-39513867D01*
X-3620185Y-39446960D01*
X-3709117Y-39383744D01*
X-3725333Y-39372984D01*
X-3992287Y-39173345D01*
X-4231018Y-38942884D01*
X-4440483Y-38683237D01*
X-4619638Y-38396038D01*
X-4767438Y-38082922D01*
X-4882841Y-37745525D01*
X-4952896Y-37450172D01*
X-4986686Y-37241516D01*
X-5011673Y-37017162D01*
X-5026755Y-36792163D01*
X-5030830Y-36581570D01*
X-5026314Y-36447053D01*
X-5012310Y-36222856D01*
X-4811541Y-35991969D01*
X-4610772Y-35761083D01*
X-4625329Y-35581166D01*
X-4629598Y-35510121D01*
X-4633960Y-35404797D01*
X-4638179Y-35273247D01*
X-4642019Y-35123524D01*
X-4645243Y-34963680D01*
X-4647212Y-34834621D01*
X-4650665Y-34567527D01*
X-2582333Y-34567527D01*
X-2533659Y-34510939D01*
X-2482425Y-34469147D01*
X-2408533Y-34442955D01*
X-2369617Y-34435445D01*
X-2305768Y-34429663D01*
X-2210408Y-34426761D01*
X-2094247Y-34426517D01*
X-1967995Y-34428710D01*
X-1842361Y-34433117D01*
X-1728054Y-34439516D01*
X-1635784Y-34447686D01*
X-1608667Y-34451218D01*
X-1582439Y-34452945D01*
X-1577633Y-34445463D01*
X-1597615Y-34425711D01*
X-1645751Y-34390627D01*
X-1725408Y-34337152D01*
X-1756833Y-34316489D01*
X-1950092Y-34183825D01*
X-2117380Y-34054768D01*
X-2272379Y-33918086D01*
X-2418292Y-33773452D01*
X-2582333Y-33603200D01*
X-2582333Y-34567527D01*
X-4650665Y-34567527D01*
X-4654538Y-34267992D01*
X-4772014Y-34091437D01*
X-4923657Y-33833601D01*
X-5043652Y-33565768D01*
X-5116081Y-33341856D01*
X-5147642Y-33185108D01*
X-5167157Y-33007402D01*
X-5174313Y-32822423D01*
X-5168796Y-32643853D01*
X-5150292Y-32485373D01*
X-5137165Y-32422310D01*
X-5080420Y-32231985D01*
X-5005385Y-32037802D01*
X-4920006Y-31859589D01*
X-4890958Y-31807737D01*
X-4807027Y-31664391D01*
X-4868546Y-31527275D01*
X-4991264Y-31230033D01*
X-5085608Y-30949531D01*
X-5151300Y-30687825D01*
X-5188060Y-30446976D01*
X-5195609Y-30229043D01*
X-5173665Y-30036083D01*
X-5121951Y-29870157D01*
X-5099854Y-29824574D01*
X-5038630Y-29719035D01*
X-4961765Y-29603803D01*
X-4867055Y-29476237D01*
X-4752296Y-29333698D01*
X-4615286Y-29173546D01*
X-4453820Y-28993140D01*
X-4265695Y-28789841D01*
X-4048708Y-28561009D01*
X-4021544Y-28532666D01*
X-3907856Y-28413686D01*
X-3796095Y-28295856D01*
X-3691994Y-28185286D01*
X-3601286Y-28088083D01*
X-3529703Y-28010357D01*
X-3490247Y-27966517D01*
X-3407219Y-27880116D01*
X-3326872Y-27810310D01*
X-3259776Y-27766282D01*
X-3259667Y-27766228D01*
X-3131301Y-27724365D01*
X-3004219Y-27722911D01*
X-2883662Y-27760128D01*
X-2774873Y-27834278D01*
X-2683095Y-27943623D01*
X-2672292Y-27960990D01*
X-2603500Y-28075710D01*
X-2603500Y-32527712D01*
X-2502958Y-32540450D01*
X-2456541Y-32544466D01*
X-2374063Y-32549642D01*
X-2261769Y-32555665D01*
X-2125907Y-32562225D01*
X-1972723Y-32569009D01*
X-1808463Y-32575705D01*
X-1756833Y-32577693D01*
X-1624863Y-32581582D01*
X-1455048Y-32584793D01*
X-1251872Y-32587346D01*
X-1019818Y-32589262D01*
X-763368Y-32590561D01*
X-487006Y-32591263D01*
X-195215Y-32591389D01*
X107523Y-32590959D01*
X416723Y-32589993D01*
X727903Y-32588512D01*
X1036580Y-32586536D01*
X1338271Y-32584085D01*
X1628493Y-32581180D01*
X1902762Y-32577841D01*
X2156596Y-32574089D01*
X2385511Y-32569943D01*
X2585025Y-32565424D01*
X2750654Y-32560552D01*
X2846917Y-32556815D01*
X2988077Y-32550751D01*
X3096402Y-32547296D01*
X3181339Y-32547027D01*
X3252338Y-32550526D01*
X3318846Y-32558372D01*
X3390312Y-32571145D01*
X3476186Y-32589426D01*
X3513667Y-32597738D01*
X3653413Y-32627948D01*
X3814243Y-32661221D01*
X3990928Y-32696600D01*
X4178237Y-32733133D01*
X4370942Y-32769863D01*
X4563812Y-32805838D01*
X4751617Y-32840102D01*
X4929129Y-32871701D01*
X5091118Y-32899681D01*
X5232354Y-32923086D01*
X5347607Y-32940963D01*
X5431649Y-32952357D01*
X5478319Y-32956312D01*
X5473710Y-32943888D01*
X5441334Y-32909762D01*
X5386324Y-32858870D01*
X5313812Y-32796149D01*
X5298402Y-32783238D01*
X5227834Y-32721562D01*
X5132975Y-32634461D01*
X5018939Y-32526966D01*
X4890838Y-32404108D01*
X4753787Y-32270917D01*
X4612899Y-32132423D01*
X4473286Y-31993657D01*
X4340063Y-31859650D01*
X4218342Y-31735432D01*
X4113237Y-31626033D01*
X4029862Y-31536485D01*
X4019682Y-31525227D01*
X3884083Y-31374538D01*
X3450419Y-31338703D01*
X2891374Y-31284397D01*
X2363834Y-31216632D01*
X1868587Y-31135700D01*
X1406421Y-31041899D01*
X978123Y-30935521D01*
X584482Y-30816863D01*
X226286Y-30686219D01*
X-95679Y-30543885D01*
X-380623Y-30390154D01*
X-627759Y-30225322D01*
X-836299Y-30049683D01*
X-1005455Y-29863534D01*
X-1134439Y-29667168D01*
X-1162403Y-29612166D01*
X-1198591Y-29533146D01*
X-1220998Y-29470638D01*
X-1232893Y-29409130D01*
X-1237545Y-29333110D01*
X-1238250Y-29252333D01*
X-1232233Y-29113884D01*
X-1212320Y-29008455D01*
X-1175717Y-28928216D01*
X-1119631Y-28865333D01*
X-1092766Y-28844458D01*
X-1078053Y-28834386D01*
X-1062130Y-28825818D01*
X-1041564Y-28818588D01*
X-1012923Y-28812530D01*
X-972775Y-28807476D01*
X-917688Y-28803262D01*
X-844231Y-28799721D01*
X-748971Y-28796687D01*
X-628476Y-28793994D01*
X-479314Y-28791476D01*
X-298054Y-28788966D01*
X-81263Y-28786299D01*
X169333Y-28783368D01*
X408145Y-28780260D01*
X648335Y-28776509D01*
X883962Y-28772247D01*
X1109083Y-28767608D01*
X1317758Y-28762725D01*
X1504043Y-28757732D01*
X1661997Y-28752762D01*
X1785677Y-28747948D01*
X1820333Y-28746297D01*
X2044106Y-28734776D01*
X2243800Y-28724174D01*
X2425945Y-28714050D01*
X2597071Y-28703963D01*
X2763710Y-28693472D01*
X2932391Y-28682136D01*
X3109645Y-28669515D01*
X3302002Y-28655168D01*
X3515993Y-28638653D01*
X3758148Y-28619530D01*
X4034998Y-28597358D01*
X4078959Y-28593820D01*
X4386203Y-28581071D01*
X4665417Y-28595374D01*
X4921774Y-28637522D01*
X5160448Y-28708308D01*
X5346048Y-28788008D01*
X5442565Y-28838722D01*
X5530253Y-28893070D01*
X5614152Y-28955739D01*
X5699302Y-29031420D01*
X5790744Y-29124801D01*
X5893516Y-29240573D01*
X6012660Y-29383424D01*
X6093868Y-29483794D01*
X6424083Y-29895172D01*
X6804984Y-29976278D01*
X7257461Y-30078183D01*
X7674394Y-30183551D01*
X8054717Y-30292027D01*
X8397362Y-30403257D01*
X8701262Y-30516886D01*
X8965351Y-30632560D01*
X9188562Y-30749923D01*
X9256395Y-30791059D01*
X9339814Y-30843718D01*
X9326549Y-30561317D01*
X9323470Y-30486692D01*
X9319436Y-30374730D01*
X9314601Y-30230414D01*
X9309120Y-30058725D01*
X9303148Y-29864647D01*
X9296839Y-29653160D01*
X9290346Y-29429249D01*
X9283825Y-29197894D01*
X9280079Y-29061833D01*
X9246874Y-27844750D01*
X9151714Y-27703136D01*
X9063399Y-27588145D01*
X8946363Y-27460231D01*
X8808857Y-27327090D01*
X8659132Y-27196419D01*
X8505438Y-27075914D01*
X8399519Y-27001471D01*
X8046715Y-26788890D01*
X7660880Y-26598828D01*
X7241445Y-26431108D01*
X6787844Y-26285549D01*
X6299511Y-26161973D01*
X5775877Y-26060201D01*
X5216377Y-25980054D01*
X5134088Y-25970428D01*
X5010408Y-25955301D01*
X4900441Y-25939877D01*
X4811474Y-25925338D01*
X4750791Y-25912862D01*
X4726400Y-25904390D01*
X4703239Y-25865738D01*
X4704345Y-25805451D01*
X4730436Y-25719745D01*
X4782227Y-25604841D01*
X4783702Y-25601873D01*
X4917201Y-25375489D01*
X5089677Y-25152149D01*
X5297774Y-24935329D01*
X5538138Y-24728509D01*
X5807413Y-24535167D01*
X5821366Y-24526052D01*
X6137889Y-24340575D01*
X6489945Y-24171945D01*
X6873668Y-24021518D01*
X7285194Y-23890652D01*
X7720657Y-23780700D01*
X8176194Y-23693020D01*
X8212667Y-23687123D01*
X8640092Y-23629328D01*
X9095285Y-23586857D01*
X9568616Y-23559792D01*
X10050455Y-23548218D01*
X10531172Y-23552215D01*
%TD*%
M02*
